<svg id="Group_53" data-name="Group 53" xmlns="http://www.w3.org/2000/svg" width="76.803" height="65.117" viewBox="0 0 76.803 65.117">
  <path id="Path_185" data-name="Path 185" d="M1793.461-2390.046c-2.573,5.22-10.291,17.326-13.09,20.2s-3.632,5.144,1.589,3.481,12.257-11.728,14.905-15.511S1793.461-2390.046,1793.461-2390.046Z" transform="translate(-1774.63 2418.554)" fill="#47301e"/>
  <path id="Path_186" data-name="Path 186" d="M1769.532-2302.483c3.963-1.275,19.581-1.078,22.215-1.311s7.925-.332,9.9.3,2.912,1.529,4.389.84,1.728-1.043,3.668-.612,9.925,2.172,11.924,2.942,4.34,4.638,5.789,5.708,7.968,1.453,7.377.27-3.932-3.959-3.992-4.587,1.136-.977,2.64-.281,5.962,2.112,6.99,1.881,1.065-2.062-1.062-2.67-8.335-2.088-11.534-2.7-8.677-2.888-12.236-3.648a79.421,79.421,0,0,0-11.55-2.073c-4.014-.254-17.8-1.7-21.445-1.327s-5.581.517-7.044.065-2.862,1.435-3.882,1.966-5.553.846-7,2.4S1766.4-2301.476,1769.532-2302.483Z" transform="translate(-1764.311 2358.739)" fill="#070303"/>
  <path id="Path_187" data-name="Path 187" d="M1908.191-2334.437c1.06,1.285,7.264,7.413,7.793,8.322s-.076,2.421,0,3.1.832.42,1.059-.622.832-1.8,1.362-1.345a14.608,14.608,0,0,1,2.043,4.842c0,.833,1.134,1.892.908,0s-2.195-5.069-1.513-4.766,2.345,1.891,3.026,1.816.605-.984-.908-1.892-4.162-1.21-5.524-2.723-5.977-6.28-6.507-6.733S1908.191-2334.437,1908.191-2334.437Z" transform="translate(-1871.579 2377.246)" fill="#919192"/>
  <path id="Path_188" data-name="Path 188" d="M1864.183-2343.364c.227.908,2.194,5.6,2.421,6.356s.984,1.664.379,2.118-1.738,2.043-1.285,2.5,1.436-2.118,2.42-1.815,1.546,1.5,1.891,2.27c.8,1.8,1.362,3.027,1.74,2.573s-1.362-3.632-.908-3.632,2.089,1.6,2.089,1.6c1.922,1.259,1.24-.894-.8-1.966s-3.405-1.61-4.086-2.967-2.875-7.032-2.875-7.032Z" transform="translate(-1838.77 2383.75)" fill="#919192"/>
  <path id="Path_189" data-name="Path 189" d="M1967.832-2478.061c1.438,0,6.356.3,6.659,1.06s-7.037,2.27-8.323,2.345-2.43-2.194-.874-2.5A8.294,8.294,0,0,0,1967.832-2478.061Z" transform="translate(-1913.591 2484.172)" fill="#919192"/>
  <path id="Path_190" data-name="Path 190" d="M1844.7-2477.44a22.728,22.728,0,0,0-.41-4.016c-.1-.3-.183-.494-.2-.536-.068-.365-.138-.713-.209-1.036-.705-3.253-.149-7.547,0-8.853.088-.776.136-1.09,0-1.185-.091-.067-.267-.03-.576.032a5.047,5.047,0,0,1-3.159-.361c-.678-.53.38-1.36,1.439-1.285s3.936-1.1,2.294-2.8a3.354,3.354,0,0,0-.389-.347,2.933,2.933,0,0,0-.417-.265,7.384,7.384,0,0,0-1.588-1.787,4.745,4.745,0,0,0-.734-.479,15.533,15.533,0,0,0-16.192,1.211c-5.826,4.313-5.372,5.977-7.869,7.339-.109.059-.224.133-.342.212h0c-2.6,1.746-7.329,8.113-7.979,9.776-.681,1.74-6.392,9.079-7.206,10.593s-6.551,8.531-4.824,10.29c1.576,1.605,7.462-8.65,10.433-10.124a5.052,5.052,0,0,0-1.767,1.977c-.948,2.089-5.344,9.784-1.933,9.283s6.032-2.5,7.783-1.892,2.961,3.1,10.3,3.48,14.453-.908,17.744-4.766c2.663-3.124,4.806-5.6,5.406-8.48A15.891,15.891,0,0,0,1844.7-2477.44Z" transform="translate(-1787.948 2502.078)" fill="#bc2456"/>
  <g id="Group_50" data-name="Group 50" transform="translate(7.445 10.362)">
    <path id="Path_191" data-name="Path 191" d="M1802.405-2438.353c2.455-2.345,13.375-.729,14.733-4.007.575-1.389-1.182-1.714,1.182-3.35s4.57-2.726,3.152-4.05c-1.036-.968,1.838-3.057,4.23-4.386-3.856-1.764-8.011-3.306-11.076-7.211-2.689,1.785-7.591,8.3-8.265,10.008-.705,1.782-6.62,9.3-7.463,10.846s-6.785,8.735-5,10.536c1.265,1.274,5.21-4.743,8.353-8.219C1802.293-2438.225,1802.359-2438.309,1802.405-2438.353Z" transform="translate(-1793.568 2461.358)" fill="#583c22"/>
  </g>
  <path id="Path_192" data-name="Path 192" d="M1924.44-2483.678c-.228.513-1.088,1.373-1.949,1.12,0,0-1.315-.342.543-2.762.679-.885,1.347-1.477,4.12-1.711,0,0,3.726-.44,4.4.586a.891.891,0,0,1-.829,1.42c-1.22.006-2.476-.333-3.3-.273C1926.577-2485.236,1924.828-2484.552,1924.44-2483.678Z" transform="translate(-1881.904 2490.93)" fill="#fff"/>
  <g id="Group_51" data-name="Group 51" transform="translate(45.519 6.376)">
    <path id="Path_193" data-name="Path 193" d="M1943.2-2475.749a2.245,2.245,0,0,1,2.35-1.263,1.414,1.414,0,0,1,.478,2.687C1944.309-2473.334,1943.2-2475.749,1943.2-2475.749Z" transform="translate(-1943.198 2477.021)" fill="#c8c5e2"/>
    <path id="Path_194" data-name="Path 194" d="M1948.542-2474.65a1.211,1.211,0,0,1-1.288,1.128,1.21,1.21,0,0,1-1.128-1.287,1.211,1.211,0,0,1,1.287-1.129A1.211,1.211,0,0,1,1948.542-2474.65Z" transform="translate(-1945.379 2476.215)" fill="#070303"/>
  </g>
</svg>
