<svg xmlns="http://www.w3.org/2000/svg" width="75.75" height="57.28" viewBox="0 0 75.75 57.28">
  <g id="Group_9" data-name="Group 9" transform="translate(-405.775 -95.392)">
    <path id="Path_24" data-name="Path 24" d="M-1112.184-4922.14c-2.533,5.141-10.134,17.063-12.891,19.894s-3.576,5.066,1.565,3.428,12.071-11.55,14.678-15.274S-1112.184-4922.14-1112.184-4922.14Z" transform="translate(1536.979 5045.605)" fill="#0d2779"/>
    <path id="Path_25" data-name="Path 25" d="M-1137.369-4856.858c3.679,1.808,18.926,3.843,21.459,4.446s7.675,1.454,9.686,1.121,3.055-1.075,4.4-.192,1.535,1.263,3.487,1.119,9.98-.7,12.039-1.166,4.89-3.9,6.455-4.736,7.972-.279,7.227.789-4.4,3.3-4.544,3.9.968,1.114,2.532.65,6.11-1.208,7.08-.835.744,2.161-1.416,2.45-8.42.846-11.624.985-8.867,1.577-12.443,1.81a78.135,78.135,0,0,1-11.551.373c-3.948-.325-17.583-.882-21.085-1.765s-5.365-1.3-6.855-1.068-2.583-1.806-3.5-2.469-5.29-1.617-6.482-3.335S-1140.275-4858.286-1137.369-4856.858Z" transform="translate(1548.529 4997.328)" fill="#070303"/>
    <path id="Path_26" data-name="Path 26" d="M-999.236-4867.393c1.043,1.266,7.153,7.3,7.675,8.2s-.075,2.384,0,3.054.82.414,1.043-.612.819-1.771,1.341-1.325a14.389,14.389,0,0,1,2.012,4.769c0,.82,1.117,1.863.894,0s-2.161-4.992-1.49-4.694,2.309,1.862,2.98,1.789.6-.969-.894-1.863-4.1-1.192-5.439-2.682-5.886-6.184-6.408-6.63S-999.236-4867.393-999.236-4867.393Z" transform="translate(1441.541 5004.942)" fill="#d4630f"/>
    <path id="Path_27" data-name="Path 27" d="M-1042.562-4876.181c.224.894,2.161,5.514,2.385,6.26s.969,1.639.373,2.086-1.711,2.012-1.266,2.458,1.414-2.086,2.383-1.788,1.522,1.474,1.862,2.235c.792,1.771,1.341,2.981,1.714,2.534s-1.341-3.577-.894-3.577,2.057,1.575,2.057,1.575c1.892,1.24,1.221-.88-.79-1.936s-3.353-1.585-4.024-2.921-2.831-6.925-2.831-6.925Z" transform="translate(1473.839 5011.345)" fill="#d4630f"/>
    <path id="Path_28" data-name="Path 28" d="M-1062.539-5013.671a29.445,29.445,0,0,1,0-8.718c.146-1.287.181-1.284-.563-1.135a4.967,4.967,0,0,1-3.112-.355c-.671-.522.372-1.342,1.415-1.267s3.876-1.086,2.26-2.756a3.06,3.06,0,0,0-.794-.6,6.376,6.376,0,0,0-2.285-2.23,15.3,15.3,0,0,0-15.946,1.192c-5.737,4.247-5.29,5.886-7.749,7.228s-7.526,8.122-8.2,9.835-6.295,8.941-7.1,10.432-6.451,8.4-4.751,10.133c1.553,1.581,7.349-8.518,10.275-9.97a4.973,4.973,0,0,0-1.74,1.947c-.934,2.058-5.263,9.635-1.9,9.141s5.94-2.459,7.665-1.863,2.917,3.055,10.144,3.427,14.233-.895,17.474-4.694c2.623-3.076,4.733-5.518,5.324-8.352C-1061.148-5004.96-1061.846-5010.469-1062.539-5013.671Z" transform="translate(1523.869 5127.822)" fill="#fff9cc"/>
    <g id="Group_7" data-name="Group 7" transform="translate(414.096 95.456)">
      <path id="Path_29" data-name="Path 29" d="M-1083.684-4998.367c-.245-2.7-3.925-4.784-3.189-7.974s-2.82-5.151-2.7-7.728,4.783-1.84,4.66-2.944,1.962-4.17,4.872-4.907,4.7-5.4,4.942-6.255c.218-.765,3.257-2.6,6.211-3.425a15.007,15.007,0,0,0-13.068,2.3c-5.737,4.247-5.29,5.886-7.749,7.228s-7.526,8.122-8.2,9.835-6.295,8.941-7.1,10.432-6.451,8.4-4.751,10.133c1.553,1.581,7.349-8.519,10.275-9.97a4.971,4.971,0,0,0-1.74,1.946c-.934,2.058-5.263,9.635-1.9,9.142s5.94-2.459,7.665-1.863c1.646.569,4.4,4.741,18.107,3.044C-1077.875-4992.024-1083.5-4996.359-1083.684-4998.367Z" transform="translate(1110.063 5032.182)" fill="#fff9cc"/>
    </g>
    <path id="Path_30" data-name="Path 30" d="M-1011.67-4994.021l-22.856-13.407a24.256,24.256,0,0,1-3.709,4.187c-.963.914-1.011.876.125,1.5s3.536,2.319,4.174,3.425-1.314.732-2.74-.379-6.1-3-4.807,0c.791,1.837,2.433,3.13,5.427,4.8s7.039,2.893,7.556,2.613a7.909,7.909,0,0,1,6.467-.113c2.754,1.41,5.635,1.148,5.926.521s4.016,2.589,5.042,1.374a22.918,22.918,0,0,0-.4-3.988C-1011.585-4993.813-1011.67-4994.021-1011.67-4994.021Z" transform="translate(1473.201 5109.185)" fill="#d4630f"/>
    <path id="Path_31" data-name="Path 31" d="M-940.518-5008.791c1.416,0,6.26.3,6.558,1.043s-6.93,2.235-8.2,2.31-2.393-2.161-.861-2.458A8.172,8.172,0,0,0-940.518-5008.791Z" transform="translate(1400.184 5110.201)" fill="#0d2779"/>
    <path id="Path_32" data-name="Path 32" d="M-1003.7-5012.664c-.067-.357-.136-.7-.2-1.014a29.455,29.455,0,0,1,0-8.718c.146-1.286.181-1.284-.563-1.134a4.964,4.964,0,0,1-3.112-.356c-.671-.521.372-1.341,1.415-1.267s3.876-1.086,2.259-2.756a3.042,3.042,0,0,0-.793-.6,6.378,6.378,0,0,0-2.285-2.23,15.3,15.3,0,0,0-15.946,1.192c-5.737,4.247-5.29,5.886-7.749,7.228-.107.058-.22.13-.337.208C-1028.114-5018.743-1020.944-5013.7-1003.7-5012.664Z" transform="translate(1465.229 5127.828)" fill="#254380"/>
    <path id="Path_33" data-name="Path 33" d="M-964.5-5006.779a1.907,1.907,0,0,1,2.266-.819,1.434,1.434,0,0,1,0,2.688C-963.9-5004.245-964.5-5006.779-964.5-5006.779Z" transform="translate(1415.648 5109.38)" fill="#fff"/>
    <path id="Path_34" data-name="Path 34" d="M-959.968-5005.542a1.193,1.193,0,0,1-1.193,1.193,1.193,1.193,0,0,1-1.192-1.193,1.192,1.192,0,0,1,1.192-1.192A1.192,1.192,0,0,1-959.968-5005.542Z" transform="translate(1414.046 5108.667)" fill="#070303"/>
    <path id="Path_35" data-name="Path 35" d="M-994.942-5020.267s-9.449-.424-11.123-.52c-1.5-.086-4.185,2.251-5.406,2.6a16.064,16.064,0,0,1-4.23-.255l-1.372,1.376-.287.321s6.512,1.78,8.8.637a27.483,27.483,0,0,1,3.69-2.085c2.376-.772,10.882-1.279,10.882-1.279l-.836-.765Z" transform="translate(1455.051 5119.145)" fill="#fff"/>
    <circle id="Ellipse_2" data-name="Ellipse 2" cx="0.301" cy="0.301" r="0.301" transform="translate(452.411 102.292)" fill="#fff"/>
    <g id="Group_8" data-name="Group 8" transform="translate(413.783 105.709)">
      <path id="Path_36" data-name="Path 36" d="M-1102.752-4969.674c2.372-2.266,9.947-4.56,10.861-5.688s-1.142-1.656,1.142-3.237,4.416-2.634,3.045-3.914c-1-.935,1.776-2.954,4.087-4.238a21.182,21.182,0,0,1-7.328-5.15c-2.6,1.725-7.334,8.024-7.986,9.67-.681,1.721-6.4,8.981-7.211,10.479s-6.555,8.44-4.828,10.179c1.222,1.23,5.033-4.583,8.071-7.941C-1102.861-4969.551-1102.8-4969.632-1102.752-4969.674Z" transform="translate(1111.291 4991.902)" fill="#0d2779"/>
    </g>
  </g>
</svg>
