<svg id="Group_12" data-name="Group 12" xmlns="http://www.w3.org/2000/svg" width="117.208" height="83.767" viewBox="0 0 117.208 83.767">
  <path id="Path_39" data-name="Path 39" d="M-1144.833-5736.13c4.653-3.1,51.034-37.236,56.892-40.928s11.555-4.893,12.451-5.759,4.067-3.586,4.692-5.434,1.075-.967.748.463-1.5,3.537.448,3.11,12.4-4.075,13.763-5.122,3.543.86,1.617,2.481-6.358,3.519-8.788,4.442-11.62,3.068-14.211,3.935-7.888,3.158-10.565,5.8-50.382,36.84-53.2,38.208S-1146.924-5734.737-1144.833-5736.13Z" transform="translate(1170.67 5818.092)" fill="#0d0f11"/>
  <path id="Path_40" data-name="Path 40" d="M-1090.044-5837.966c-2.385,3.843-22.323,23.667-26.274,21.2s2.593-16.6,5.256-21.185,11.451-18.105,16.9-20.111C-1091.291-5859.114-1086.344-5843.926-1090.044-5837.966Z" transform="translate(1149.827 5868.789)" fill="#6c581d"/>
  <path id="Path_41" data-name="Path 41" d="M-1077.578-5871.372c3.224-3.521,4.508-8.871,4.712-9.771s-.42-1.388.29-1.725-.2-1.1-.463-2.259-.829-1.65.589-1.823a9.912,9.912,0,0,0,4.79-2.274c.882-.983,3.606-1.511,4.327-1.865s2.184.24,2.769-.6a15.079,15.079,0,0,0,1.2-3.371c-.3-.315-.66-1.106-1.407-1.969-1.245-1.437-3.557-3.07-8.4-3.025-7.748.07-10.83,3.013-13.472,9.029s-8.732,13.517-10.712,15.76a48.35,48.35,0,0,0-6.243,10.053c-.954,2.431-1.414,8.494-2.757,15.781" transform="translate(1138.497 5900.052)" fill="#533977"/>
  <path id="Path_42" data-name="Path 42" d="M-1070.347-5869.081a31.4,31.4,0,0,0-4.221,6.4c-.837,1.854-.516,3.481-.02,8.05a24.3,24.3,0,0,1-2.374,13.3c-2.044,4.255-5.44,10.238-8.039,12a81.8,81.8,0,0,1-9.99,5.353,16.758,16.758,0,0,1-9.126.953,9.338,9.338,0,0,0-6.327.962c-1.682,1.084-5.839,3.407-6.963,2.919s4.282-9.471,8.535-12.557,21.932-24.21,22.232-26.874,1.988-6.75,4.039-7.877,8.271-2.453,9.449-2.535S-1070.347-5869.081-1070.347-5869.081Z" transform="translate(1149.827 5876.966)" fill="#b99e8d"/>
  <path id="Path_43" data-name="Path 43" d="M-1003.6-5883.877l-1.205-.179a21.447,21.447,0,0,0,.85-2.7c-.02-.021-.041-.045-.062-.071a13.237,13.237,0,0,1-3.008-.277s-3.733-4.3-9.578.281a18.045,18.045,0,0,1-9.663,2.1c-.333.629-.653,1.3-.967,2.013-.234.533-.5,1.078-.778,1.628,0,0,14.774,6.576,19.692,5.667C-1008.317-5875.415-1008.808-5877.288-1003.6-5883.877Z" transform="translate(1083.078 5891.762)" fill="#fdfefb"/>
  <path id="Path_44" data-name="Path 44" d="M-1035.1-5733.385c.961.846,7.462,8.456,9.268,8.342a7.747,7.747,0,0,0,2.9-.356,6.381,6.381,0,0,1,4.015.3c1.341,1.029,1.3,2.426-.07,1.309-.454-.372-2.113-1.075-1.673-.542s2.386,1.418,2.674,3.9c.1.871-1.194.477-1.259-.22-.166-1.8-2.33-3.6-2.562-3.435-.541.388.933,1.361,1.268,2.04.232.471-.132,1.675-.646.935-.65-.937-.327-2.006-2.2-2.125a4.279,4.279,0,0,0-2.276.05c-.811.368-9.571-8.2-10-9.108A.723.723,0,0,1-1035.1-5733.385Z" transform="translate(1088.864 5775.816)" fill="#2e2f2f"/>
  <path id="Path_45" data-name="Path 45" d="M-1038.16-5708.065c-.331,1.38,1.38,4.125,1.115,5.276s-2.193,2.266-3.453,1.168-1.6-4.864-.99-6.037S-1038.16-5708.065-1038.16-5708.065Z" transform="translate(1093.344 5757.126)" fill="#917e6f"/>
  <path id="Path_46" data-name="Path 46" d="M-932.125-5884.115" transform="translate(1011.605 5888.172)" fill="#0d2779"/>
  <path id="Path_47" data-name="Path 47" d="M-1021.876-5892.66c2.487-5.042,5.919-7.33,12.694-7.391,4.843-.045,7.154,1.589,8.4,3.025.747.862,1.111,1.654,1.407,1.969,0,0-.236.975-.555,1.914Z" transform="translate(1078.506 5900.052)" fill="#0d0f11"/>
  <path id="Path_48" data-name="Path 48" d="M-969.733-5880.331a3.075,3.075,0,0,0-3.077-1.625,3.114,3.114,0,0,0-2.117,1.616,2.559,2.559,0,0,0,2.608,2.386A2.65,2.65,0,0,0-969.733-5880.331Z" transform="translate(1043.51 5886.599)" fill="#464650"/>
  <path id="Path_49" data-name="Path 49" d="M-971.174-5879.277a1.79,1.79,0,0,0,1.993,1.559,1.789,1.789,0,0,0,1.559-1.994,1.79,1.79,0,0,0-1.994-1.559A1.789,1.789,0,0,0-971.174-5879.277Z" transform="translate(1040.723 5886.062)" fill="#151311"/>
  <circle id="Ellipse_3" data-name="Ellipse 3" cx="0.525" cy="0.525" r="0.525" transform="translate(71.548 5.204)" fill="#fdfefb"/>
  <path id="Path_50" data-name="Path 50" d="M-1244.313-5828.833" transform="translate(1244.313 5846.964)" fill="#0d2779"/>
  <path id="Path_51" data-name="Path 51" d="M-1111.512-5853.865c-.023-.1-.049-.194-.075-.285-5.207-1.688-10.313-3.96-10.313-3.96l-.005,0c-2.913,5.671-9.767,12.592-11.569,14.635-1.978,2.244-4.441,7.9-5.4,10.329s-.616,7.7-1.959,14.982c-3.418,7.261-8.282,16.6-12.578,21.18,0,0-2.108,3.791,1.845,4.175a9.6,9.6,0,0,0,2.826.2c.294.707.983,1.283,2.436,1.323a9.565,9.565,0,0,0,2.627.038c.294.222.506.358.506.358,2.905,2.494,4.639-1.454,4.639-1.454,1.671-10.587,14.442-32.19,14.442-32.19l-.515-4.825,2.145-1,6.407-9.755c3.224-3.521,4.508-8.871,4.712-9.771s-.419-1.388.29-1.725S-1111.246-5852.709-1111.512-5853.865Z" transform="translate(1176.969 5868.79)" fill="#554b49"/>
  <path id="Path_52" data-name="Path 52" d="M-1118.137-5739.781c-2.146,4.2-1.638.71-5.245,6.351s-13.132,28.3-15.432,29.741-3.161-.31-2.115-2.536,2.787-6.783,1.754-5.7-6.263,11.422-8.019,10.216,7.612-16.251,10.067-20.168,4.227-8.35,5.368-10.224C-1127.946-5738.358-1118.137-5739.781-1118.137-5739.781Z" transform="translate(1172.082 5780.584)" fill="#615857"/>
  <path id="Path_53" data-name="Path 53" d="M-1030.331-5823.937c-1.587,4.235-17.258,27.579-21.615,25.935s-.708-16.791,1.007-21.8,7.685-20,12.641-23.031C-1035.693-5844.433-1027.868-5830.507-1030.331-5823.937Z" transform="translate(1102.456 5857.498)" fill="#6c581d"/>
  <path id="Path_54" data-name="Path 54" d="M-974.575-5873.424s-5.125,1.7-6.823,2.509-3.928,2.589-5.187,2.393a4.643,4.643,0,0,0,3.141.742s6.924-3.47,9.516-2.958l1.208-1.579Z" transform="translate(1052.2 5880.203)" fill="#0d0f11"/>
  <path id="Path_55" data-name="Path 55" d="M-945.137-5880.9c1.5.037,6.731.3,7.261,1.05s-1.05,1.13-2.314,1.535a73.271,73.271,0,0,1-7.335.9c-.74.09-2.163-.8-1.322-1.09s3.015-.932,3.385-1.479S-946.005-5880.92-945.137-5880.9Z" transform="translate(1024.262 5885.776)" fill="#2e2f2f"/>
  <path id="Path_56" data-name="Path 56" d="M-1011-5899.268a62.109,62.109,0,0,0-6.666,1.19s-.531.3,1.382.586c0,0-3.858.28-3.049.832a8.591,8.591,0,0,0,1.667.866,13.17,13.17,0,0,0-2.534,0c-.63.158,1.26.788,1.26.788h2.442l5.2-2.131Z" transform="translate(1077.354 5899.467)" fill="#0d0f11"/>
</svg>
