<svg id="Group_16" data-name="Group 16" xmlns="http://www.w3.org/2000/svg" width="111.723" height="63.963" viewBox="0 0 111.723 63.963">
  <path id="Path_59" data-name="Path 59" d="M-1156.891-6454.427c6.829-.229,18.166-1.84,26.6-1.872s14.753,2.856,16.281,2.482,6.66-1.272,8.7-3.05,1.776-.36.342,1.136-4.2,3.175-2.025,4.143,14.908,4.5,17.017,4.264,2.666,3.758-.428,4.267-8.769-.562-11.788-1.291-13.378-5.134-16.505-6.057-9.928-2.173-14.532-.993-17.24,1.854-20.979,1.367S-1159.961-6454.324-1156.891-6454.427Z" transform="translate(1166.648 6506.888)" fill="#0b0a0c"/>
  <path id="Path_60" data-name="Path 60" d="M-1029.469-6480.348c1.135,1.238.1,3.3-2.063,4.022s-10.622,3.609-12.272,4.332.928,2.887,0,4.434-4.219,1.444-4.219,1.444,3.187-.928,3.29-2.062,0-3.609-1.34-3.4-3.215.413-3.206,1.341a6.272,6.272,0,0,0,.908,2.371s-2.962-1.553-2.034-2.994a3.713,3.713,0,0,1,2.382-1.647s-2.618-1.442-3.583-.721,0,4.331,0,4.331-3.336-4.228-.964-5.362,4.95.826,6.394,1.032,12.169-3.61,13.613-4.435a2.882,2.882,0,0,0,1.237-2.681Z" transform="translate(1088.396 6523.774)" fill="#2e2f2f"/>
  <path id="Path_61" data-name="Path 61" d="M-1179.914-6635.815a51.223,51.223,0,0,0-7.914,0,3.871,3.871,0,0,0-3,1.365s4.276.885,6.549,1.5a26.6,26.6,0,0,1,5.185,1.91s3.275-1.522,2.183-2.876A6.73,6.73,0,0,0-1179.914-6635.815Z" transform="translate(1190.83 6639.787)" fill="#2e2f2f"/>
  <path id="Path_62" data-name="Path 62" d="M-978.017-6578c6.822,1.364,36.295,12.689,36.022,14.053s-8.6-1.911-10.1,0,31.9,8.887,31.629,11.752-31.083-7.385-35.722-6.84S-978.017-6578-978.017-6578Z" transform="translate(1032.185 6596.566)" fill="#0b0a0c"/>
  <path id="Path_63" data-name="Path 63" d="M-1132.444-6640.982c-.969-2.729-5.88-8.6-10.792-9.688s-9.415,1.228-11.189,1.911-5.184,1.6-4.5,1.616,5.445,3.393,8.732,5.342c3.307,1.962,3,3.82,9.824,3.411S-1132.444-6640.982-1132.444-6640.982Z" transform="translate(1167.114 6650.958)" fill="#0e204f"/>
  <path id="Path_64" data-name="Path 64" d="M-1153.532-6624.2c2.829-.658,4.071-.893,6.936.745s4.776,3.139,7.232,2.592,12.144,9.415,16.237,11.871,33.565,11.188,37.522,12.006,11.09,2.72,9.5,5.385-13.131,1.847-17.8,2.666a93.169,93.169,0,0,1-15.993,1.91c-7.776.273-25.1-2.592-31.245-9.414s-6.141-13.781-6.686-16.374-2.184-7.5-3.411-8.323S-1155.071-6623.838-1153.532-6624.2Z" transform="translate(1163.378 6631.38)" fill="#0d2779"/>
  <path id="Path_65" data-name="Path 65" d="M-1045.283-6543.658c3.41,2.183,16.788,4.476,22.174,5.513s13.847,2.1,13.164,0-18.283-7.422-24.56-7.422A30.234,30.234,0,0,0-1045.283-6543.658Z" transform="translate(1082.33 6572.393)" fill="#0d2779"/>
  <path id="Path_66" data-name="Path 66" d="M-1042.877-6546.064c3.41,2.184,16.788,4.476,22.174,5.513s13.847,2.1,13.164,0-18.283-7.422-24.56-7.422A30.234,30.234,0,0,0-1042.877-6546.064Z" transform="translate(1080.536 6574.187)" fill="#0e204f"/>
  <path id="Path_67" data-name="Path 67" d="M-1013.177-6554.678c3.548,1.364,10.1,4.5,18.011,6s18.011,4.164,19.784,2.628-15.419-8.086-20.057-8.631-12.145-4.057-15.146-2.866S-1013.177-6554.678-1013.177-6554.678Z" transform="translate(1058.409 6581.503)" fill="#0d2779"/>
  <path id="Path_68" data-name="Path 68" d="M-1010.771-6557.084c3.548,1.364,10.1,4.5,18.011,6s18.011,4.165,19.784,2.628-15.418-8.086-20.057-8.632-12.145-4.057-15.146-2.865S-1010.771-6557.084-1010.771-6557.084Z" transform="translate(1056.616 6583.297)" fill="#0e204f"/>
  <path id="Path_69" data-name="Path 69" d="M-1082.746-6573.8c-1.5,3-2.455,8.459,1.911,9.142s10,.91,9.278,0-8.05-8.46-9.278-9.142A1.567,1.567,0,0,0-1082.746-6573.8Z" transform="translate(1111.195 6593.664)" fill="#0d2779"/>
  <path id="Path_70" data-name="Path 70" d="M-1080.34-6576.2c-1.5,3-2.455,8.459,1.911,9.143s10,.909,9.278,0-8.05-8.46-9.278-9.143A1.567,1.567,0,0,0-1080.34-6576.2Z" transform="translate(1109.402 6595.457)" fill="#0e204f"/>
  <path id="Path_71" data-name="Path 71" d="M-1066.73-6573.8c-1.5,3-.325,9.805,4.041,10.487s7.874-.435,7.148-1.345-8.05-8.46-9.278-9.142A1.566,1.566,0,0,0-1066.73-6573.8Z" transform="translate(1098.78 6593.664)" fill="#0d2779"/>
  <path id="Path_72" data-name="Path 72" d="M-1064.324-6576.2c-1.5,3-.326,9.8,4.041,10.487s7.873-.436,7.147-1.345-8.05-8.46-9.278-9.143A1.566,1.566,0,0,0-1064.324-6576.2Z" transform="translate(1096.987 6595.457)" fill="#0e204f"/>
  <path id="Path_73" data-name="Path 73" d="M-1054.265-6577.219a7.847,7.847,0,0,0,1.909,9.142c4.635,4.5,10,.91,9.278,0s-8.05-8.46-9.278-9.142A1.565,1.565,0,0,0-1054.265-6577.219Z" transform="translate(1089.583 6596.213)" fill="#0d2779"/>
  <path id="Path_74" data-name="Path 74" d="M-1051.859-6579.625a7.848,7.848,0,0,0,1.909,9.142c4.635,4.5,10,.91,9.279,0s-8.05-8.46-9.279-9.142A1.565,1.565,0,0,0-1051.859-6579.625Z" transform="translate(1087.79 6598.007)" fill="#0e204f"/>
  <path id="Path_75" data-name="Path 75" d="M-1038.8-6581.5c-1.615,1.659-2.1,5.148,1.911,9.141,4.459,4.441,10,.91,9.278,0s-8.05-8.46-9.278-9.141A1.566,1.566,0,0,0-1038.8-6581.5Z" transform="translate(1078.385 6599.409)" fill="#0d2779"/>
  <path id="Path_76" data-name="Path 76" d="M-1036.4-6583.911c-1.615,1.66-2.1,5.148,1.911,9.141,4.459,4.441,10,.91,9.278,0s-8.05-8.46-9.278-9.141A1.566,1.566,0,0,0-1036.4-6583.911Z" transform="translate(1076.592 6601.203)" fill="#0e204f"/>
  <path id="Path_77" data-name="Path 77" d="M-995.005-6565.517c3.411,1.091,11.56,4.044,16.129,4.219s12.036,5.194,10.574,2.739-20.846-10.618-22.888-11.46-6.271-1.179-7.5.843S-995.005-6565.517-995.005-6565.517Z" transform="translate(1047.743 6591.114)" fill="#0d2779"/>
  <path id="Path_78" data-name="Path 78" d="M-1025.744-6584.2c-4.222,1.475-2.664,5.405,1.91,9.143,3.423,2.8,10,.911,9.278,0s-8.05-8.459-9.278-9.143A1.566,1.566,0,0,0-1025.744-6584.2Z" transform="translate(1069.605 6601.42)" fill="#0d2779"/>
  <path id="Path_79" data-name="Path 79" d="M-992.6-6567.922c3.411,1.091,11.56,4.044,16.129,4.219s12.036,5.194,10.574,2.738-20.846-10.617-22.888-11.459-6.271-1.179-7.5.843S-992.6-6567.922-992.6-6567.922Z" transform="translate(1045.949 6592.907)" fill="#0e204f"/>
  <path id="Path_80" data-name="Path 80" d="M-1023.338-6586.608c-4.222,1.475-2.664,5.4,1.91,9.142,3.423,2.8,10,.911,9.278,0s-8.05-8.459-9.278-9.142A1.566,1.566,0,0,0-1023.338-6586.608Z" transform="translate(1067.811 6603.213)" fill="#0e204f"/>
  <path id="Path_81" data-name="Path 81" d="M-1013.981-6588.035c5.454.5,15.023,7.042,12.963,9.268s-6.14,2.752-10.779-.739S-1021.349-6588.707-1013.981-6588.035Z" transform="translate(1061.806 6604.091)" fill="#0d2779"/>
  <path id="Path_82" data-name="Path 82" d="M-1011.575-6590.441c5.454.5,15.023,7.042,12.963,9.268s-6.14,2.752-10.779-.738S-1018.943-6591.112-1011.575-6590.441Z" transform="translate(1060.013 6605.885)" fill="#0e204f"/>
  <path id="Path_83" data-name="Path 83" d="M-1148.537-6613.742c.257,1.222.394,3.415,1.109,6.106,6.582-1.851,12.007-6.045,15.231-9.029-3.379-2.861-6.605-5.412-7.881-5.128-2.456.547-4.366-.955-7.232-2.592s-4.107-1.4-6.936-.744c-1.539.357,1.1,2.383,2.333,3.2S-1149.083-6616.334-1148.537-6613.742Z" transform="translate(1163.907 6632.076)" fill="#0e204f"/>
  <path id="Path_84" data-name="Path 84" d="M-1099.012-6613.387c6.145.125,16.237,4.639,20.193,6.55s7.368,3.362,3,3.523-11.734-2.022-14.055-1.067-4.23,3-9.141,2.729-11.871-4.367-11.462-6.413S-1105.7-6613.522-1099.012-6613.387Z" transform="translate(1130.94 6622.953)" fill="#0d2779"/>
  <g id="Group_15" data-name="Group 15" transform="translate(18.037 3.472)">
    <path id="Path_85" data-name="Path 85" d="M-1119.967-6636.027a2.367,2.367,0,0,1,2.368-1.25,2.4,2.4,0,0,1,1.63,1.244,1.969,1.969,0,0,1-2.007,1.836A2.039,2.039,0,0,1-1119.967-6636.027Z" transform="translate(1119.967 6637.315)" fill="#7b2919"/>
    <path id="Path_86" data-name="Path 86" d="M-1115.219-6635.216a1.377,1.377,0,0,1-1.535,1.2,1.377,1.377,0,0,1-1.2-1.535,1.378,1.378,0,0,1,1.535-1.2A1.378,1.378,0,0,1-1115.219-6635.216Z" transform="translate(1118.474 6636.902)" fill="#151311"/>
    <circle id="Ellipse_4" data-name="Ellipse 4" cx="0.404" cy="0.404" r="0.404" transform="translate(0.907 0.47)" fill="#fdfefb"/>
  </g>
</svg>
