<svg id="Group_27" data-name="Group 27" xmlns="http://www.w3.org/2000/svg" width="96.232" height="80.749" viewBox="0 0 96.232 80.749">
  <g id="Group_19" data-name="Group 19" transform="translate(9.872 11.673)">
    <path id="Path_89" data-name="Path 89" d="M2113.338-6640.673h0C2113.355-6640.689,2113.37-6640.705,2113.338-6640.673Z" transform="translate(-2033.964 6641.332)" fill="#070303"/>
    <path id="Path_90" data-name="Path 90" d="M1880.744-6638.985c2.122.158,3.64,1.581,5.474,1.964,1.387.29,2.109-1.546,1.206-2.486a10.31,10.31,0,0,0-3.653-2.1,17.969,17.969,0,0,0-2.932-.937c-.017.018-.036.037,0,0l-1.949-.359a42.555,42.555,0,0,0-7.66-.235c-8.165.356-17.462,7.167-21.913,15.737-2.62,5.045-4.327,7.216-5.833,8.768l-3.785,3.908c-2.616,3.151-6,8.257-7.415,12.862-1.538,5.012-8.057,6.513-13.732,8.375a8.2,8.2,0,0,1-.844.221c-.711.395-1.3.648-2.034,1.081l-5.187,2.646c-10.368,3.672-8.956,15.414-8.956,15.414h12.117c.852-2.745,4.068-9.791,5.322-10.329.414-.178.9-.325,1.422-.579h.006a27.034,27.034,0,0,0,2.549-1.441c1.489-.934,2.728-1.648,3.816-2.261l3.776-2.178c2.205-1.4,4.23-3.128,7.734-7.177,6.653-7.687,3.855-11.159,9.834-16.275,5.323-4.554,3.5-6.535,6.73-13.131a5.436,5.436,0,0,1,2.38-1.426c2.994-.762,5.553,1.347,7.892,3.083,2.206,1.638,3.77,4.988,6.785,4.007,1.333-.435,2.206-2.163,3.7-1.822,1.546.353,2.187,2.341,3.686,2.927.561.219.7.4,1.33.16-1.614-1.6-3.218-4.6-5.427-4.993-1.618-.287-2.207.941-3.587,1.285-1.866.465-1.834-.649-3.135-2.071-2.385-2.608-7.006-5.74-10.9-5.633C1863.325-6639.048,1874.337-6639.463,1880.744-6638.985Z" transform="translate(-1801.463 6643.206)" fill="#070303"/>
  </g>
  <g id="Group_25" data-name="Group 25">
    <path id="Path_91" data-name="Path 91" d="M1825.058-6601.987c-.852-1.584-6.829-9.266-7.542-11.087s-6.1-9.027-8.711-10.453-2.138-3.167-8.236-7.681a16.258,16.258,0,0,0-16.947-1.267,6.775,6.775,0,0,0-2.429,2.371,3.255,3.255,0,0,0-.843.639c-1.719,1.775,1.293,3.009,2.4,2.93s2.217.792,1.5,1.347a5.288,5.288,0,0,1-3.307.378c-.791-.16-.753-.162-.6,1.206s.738,5.86,0,9.265c-.073.338-.147.7-.218,1.084-.017.043-.1.252-.209.562a23.762,23.762,0,0,0-.429,4.2,16.633,16.633,0,0,0,.41,6.261c.628,3.011,2.871,5.606,5.659,8.875,3.444,4.038,10.889,5.385,18.57,4.988s8.948-3.008,10.781-3.642,4.575,1.455,8.146,1.98-1.031-7.529-2.023-9.716a5.284,5.284,0,0,0-1.849-2.068c3.11,1.542,9.27,12.276,10.92,10.6C1831.914-6593.058,1825.91-6600.4,1825.058-6601.987Z" transform="translate(-1775.14 6648.222)" fill="#fff9cc"/>
    <path id="Path_92" data-name="Path 92" d="M1769.651-6609.152c-1.5,0-6.653.316-6.969,1.109s7.365,2.375,8.711,2.455,2.543-2.3.915-2.613A8.674,8.674,0,0,1,1769.651-6609.152Z" transform="translate(-1762.673 6629.492)" fill="#2e2f2f"/>
    <path id="Path_93" data-name="Path 93" d="M1923.216-6517.051c2.692,5.464,10.77,18.134,13.7,21.143s3.8,5.384-1.663,3.644-12.829-12.275-15.6-16.233S1923.216-6517.051,1923.216-6517.051Z" transform="translate(-1879.178 6560.831)" fill="#554b49"/>
    <path id="Path_94" data-name="Path 94" d="M1816.328-6458.861c-1.109,1.346-7.6,7.759-8.156,8.71s.08,2.534,0,3.246-.871.44-1.109-.651-.871-1.883-1.426-1.408a15.284,15.284,0,0,0-2.138,5.068c0,.872-1.187,1.98-.95,0s2.3-5.305,1.584-4.988-2.454,1.979-3.168,1.9-.633-1.03.95-1.98,4.356-1.267,5.781-2.85,6.255-6.573,6.81-7.047S1816.328-6458.861,1816.328-6458.861Z" transform="translate(-1790.899 6517.608)" fill="#d4630f"/>
    <path id="Path_95" data-name="Path 95" d="M1878.339-6468.2c-.238.95-2.3,5.86-2.534,6.652s-1.03,1.742-.4,2.217,1.818,2.138,1.345,2.612-1.5-2.216-2.533-1.9-1.618,1.567-1.979,2.375c-.842,1.883-1.426,3.168-1.821,2.694s1.425-3.8.95-3.8-2.187,1.674-2.187,1.674c-2.011,1.318-1.3-.936.84-2.058s3.564-1.685,4.276-3.1,3.009-7.359,3.009-7.359Z" transform="translate(-1841.189 6524.414)" fill="#d4630f"/>
    <g id="Group_20" data-name="Group 20" transform="translate(11.646 14.012)">
      <path id="Path_96" data-name="Path 96" d="M1824.16-6598.076c.26-2.868,4.171-5.084,3.389-8.474s3-5.476,2.867-8.213-5.084-1.956-4.952-3.129-2.086-4.432-5.179-5.215-4.991-5.735-5.251-6.647c-.232-.813-3.462-2.763-6.6-3.64a15.949,15.949,0,0,1,13.889,2.448c6.1,4.514,5.622,6.256,8.236,7.681s8,8.632,8.711,10.453,6.69,9.5,7.542,11.087,6.857,8.929,5.05,10.77c-1.65,1.68-7.81-9.053-10.92-10.6a5.287,5.287,0,0,1,1.849,2.068c.992,2.187,5.594,10.24,2.023,9.716s-6.313-2.614-8.146-1.98c-1.75.6-4.68,5.039-19.243,3.234C1817.987-6591.335,1823.966-6595.942,1824.16-6598.076Z" transform="translate(-1808.432 6634.014)" fill="#fff9cc"/>
    </g>
    <g id="Group_21" data-name="Group 21" transform="translate(25.422 24.323)">
      <path id="Path_97" data-name="Path 97" d="M1882.129-6567.286c-2.6-2.482-11.148-5.12-12.149-6.357s1.251-1.814-1.251-3.546-4.838-2.886-3.337-4.288c1.1-1.024-.3-5.391-2.832-6.8,4.082-1.867,6.175-3.528,7.651-5.225,2.821,1.194,8.413,8.373,9.127,10.177.746,1.886,7.008,9.84,7.9,11.48s7.182,9.247,5.29,11.153c-1.34,1.348-6.911-2.741-10.239-6.421C1882.248-6567.151,1882.178-6567.239,1882.129-6567.286Z" transform="translate(-1862.56 6593.5)" fill="#554b49"/>
    </g>
    <path id="Path_98" data-name="Path 98" d="M1810.155-6675.063" transform="translate(-1798.07 6678.628)" fill="#fff"/>
    <path id="Path_99" data-name="Path 99" d="M1830.967-6656.064s4.323,7.891,6.063,9.922l-8.788-.051-2.092-2.536Z" transform="translate(-1809.995 6664.464)" fill="#fff"/>
    <g id="Group_22" data-name="Group 22" transform="translate(11.298 2.77)">
      <path id="Path_100" data-name="Path 100" d="M1807.063-6663.821s2.835-13.172,4.464-14.368a8.956,8.956,0,0,1,2.616,5.738s.871,6.039-4.1,8.6C1809.378-6663.51,1808.109-6662.917,1807.063-6663.821Z" transform="translate(-1807.063 6678.189)" fill="#fff"/>
      <path id="Path_101" data-name="Path 101" d="M1816.723-6657.021s4.193-11.369,5.794-12.227a8.055,8.055,0,0,1,1.6,5.44s.01,5.486-4.743,7.137A2.323,2.323,0,0,1,1816.723-6657.021Z" transform="translate(-1814.265 6671.523)" fill="#fff"/>
      <path id="Path_102" data-name="Path 102" d="M1824.867-6646.527s4.907-8.214,6.514-8.559a6.571,6.571,0,0,1,1.126,4.7,5.319,5.319,0,0,1-5.112,4.7A2.809,2.809,0,0,1,1824.867-6646.527Z" transform="translate(-1820.336 6660.966)" fill="#fff"/>
      <path id="Path_103" data-name="Path 103" d="M1825.786-6637.1s7.224-6.274,8.858-6.1a6.57,6.57,0,0,1-.4,4.82,5.32,5.32,0,0,1-6.325,2.875A2.807,2.807,0,0,1,1825.786-6637.1Z" transform="translate(-1821.021 6652.109)" fill="#fff"/>
    </g>
    <path id="Path_104" data-name="Path 104" d="M1783.8-6626.276c1.109-.079,2.217.793,1.5,1.347a5.278,5.278,0,0,1-3.307.379c-.791-.159-.754-.162-.6,1.205a32.487,32.487,0,0,1,.07,8.916c3.812,1.954,19.358-.452,27.851-9.208-1.687-1.345-2.353-3.662-7.7-7.31a16.811,16.811,0,0,0-16.947-1.267,6.77,6.77,0,0,0-2.429,2.37,3.272,3.272,0,0,0-.844.64C1779.677-6627.43,1782.688-6626.2,1783.8-6626.276Z" transform="translate(-1776.243 6647.962)" fill="#fff"/>
    <path id="Path_105" data-name="Path 105" d="M1801.717-6607.07s4.618,2.956,5.146,4.138,3.365-.394,3.365-.394,4.552-3.416,4.09-4.007c0,0-.4-.8.313-.7,0,0,.841.517,0,1.33,0,0-3.444,4.482-5.446,4.7,0,0-2.372,1.33-3.065.419,0,0-3.439-4.262-4.4-4.532Z" transform="translate(-1791.78 6628.662)" fill="#0d0f11"/>
    <path id="Path_106" data-name="Path 106" d="M1823.388-6613.136s4.006,1.187,5.37.69c0,0-.958.83-4.816,1.744l-.754-1.744Z" transform="translate(-1807.786 6632.462)" fill="#151311"/>
    <g id="Group_23" data-name="Group 23" transform="translate(12.833 19.193)">
      <path id="Path_107" data-name="Path 107" d="M1813.094-6612.445a2.455,2.455,0,0,1,2.41-1.177,2.4,2.4,0,0,1,1.658,1.17,1.922,1.922,0,0,1-2.043,1.729A1.989,1.989,0,0,1,1813.094-6612.445Z" transform="translate(-1813.094 6613.658)" fill="#554b49"/>
      <path id="Path_108" data-name="Path 108" d="M1817.927-6611.682a1.383,1.383,0,0,1-1.562,1.13,1.322,1.322,0,0,1-1.221-1.445,1.383,1.383,0,0,1,1.562-1.129A1.322,1.322,0,0,1,1817.927-6611.682Z" transform="translate(-1814.615 6613.269)" fill="#151311"/>
      <ellipse id="Ellipse_5" data-name="Ellipse 5" cx="0.412" cy="0.381" rx="0.412" ry="0.381" transform="translate(0.924 0.442)" fill="#fdfefb"/>
    </g>
    <g id="Group_24" data-name="Group 24" transform="translate(5.805)">
      <path id="Path_109" data-name="Path 109" d="M1785.48-6670.352s2.132-17.021,4.064-18.719a11.4,11.4,0,0,1,3.956,6.986s1.776,7.562-4.248,11.364C1788.451-6670.215,1786.907-6669.322,1785.48-6670.352Z" transform="translate(-1785.48 6689.071)" fill="#554b49"/>
      <path id="Path_110" data-name="Path 110" d="M1796.178-6672.934s3.77,8.131-1.592,12.782c0,0-2.051,2.474-4.365,2.3,0,0,3.347-10.217,3-11.757,0,0,1.744,3.975.681,5.988C1793.9-6663.626,1796.325-6668.791,1796.178-6672.934Z" transform="translate(-1789.014 6677.041)" fill="#0d0f11"/>
    </g>
  </g>
</svg>
