<svg id="Group_33" data-name="Group 33" xmlns="http://www.w3.org/2000/svg" width="80.434" height="62.22" viewBox="0 0 80.434 62.22">
  <path id="Path_113" data-name="Path 113" d="M1750.253-5678.07c5.993.6,31.183-4.357,38.585-3.419s16.531,5.145,17.87,5.037,5.839-.2,7.623-1.31,1.557-.069.306.9-3.669,1.918-1.756,2.9,13.109,5.1,14.959,5.158,2.36,3.141-.353,3.172-7.7-1.424-10.354-2.318-11.77-5.4-14.519-6.452-8.726-2.771-12.761-2.406-33.937,3.166-37.222,2.372S1747.559-5678.342,1750.253-5678.07Z" transform="translate(-1748.942 5727.86)" fill="#0d0f11"/>
  <path id="Path_114" data-name="Path 114" d="M1931.6-5703.472c1.054,1.279,7.225,7.374,7.752,8.277s-.076,2.408,0,3.085.828.417,1.054-.619.827-1.789,1.354-1.338a14.523,14.523,0,0,1,2.032,4.816c0,.828,1.129,1.882.9,0s-2.183-5.042-1.505-4.741,2.332,1.881,3.01,1.807.6-.979-.9-1.882-4.139-1.2-5.494-2.709-5.945-6.246-6.472-6.7S1931.6-5703.472,1931.6-5703.472Z" transform="translate(-1885.228 5744.324)" fill="#d4630f"/>
  <path id="Path_115" data-name="Path 115" d="M1849.911-5824.382c.862-3.2,3.314-6.737,4.042-7.822s.758-1.068.021-1.279a5.018,5.018,0,0,1-2.627-1.762c-.36-.78.956-1.031,1.857-.481s3.982.823,3.306-1.425a3.083,3.083,0,0,0-.433-.908,6.439,6.439,0,0,0-1.016-3.061,15.449,15.449,0,0,0-14.86-6.323c-7.117,1.15-7.476,2.828-10.3,2.892s-10.519,3.8-11.915,5.024-9.794,5.1-11.2,6.07-9.684,4.547-8.962,6.889c.66,2.138,10.544-4.236,13.842-4.181a5.018,5.018,0,0,0-2.464.939c-1.792,1.413-9.19,6.205-5.947,7.32s6.47.547,7.741,1.882,1.2,4.094,7.512,7.778,13.186,5.8,17.855,3.891c3.779-1.544,6.805-2.756,8.65-5.025C1847.12-5815.921,1849.048-5821.187,1849.911-5824.382Z" transform="translate(-1785.374 5851.741)" fill="#f1d346"/>
  <path id="Path_116" data-name="Path 116" d="M1948.744-5836.5a3.089,3.089,0,0,0-.433-.907,6.441,6.441,0,0,0-1.016-3.062,15.449,15.449,0,0,0-14.86-6.323c-7.117,1.15-7.476,2.828-10.3,2.892a5.075,5.075,0,0,0-.664.066l16.752,15.905s-.921,14.452-7.592,18.662c2.818-1.189,5.118-2.207,6.613-4.044,2.115-1.959,4.043-7.225,4.906-10.419s3.314-6.737,4.042-7.822.758-1.068.021-1.279a5.012,5.012,0,0,1-2.627-1.762c-.361-.779.956-1.031,1.857-.48S1949.42-5834.253,1948.744-5836.5Z" transform="translate(-1877.666 5851.256)" fill="#fff"/>
  <path id="Path_117" data-name="Path 117" d="M1941.218-5862.09h0a4.346,4.346,0,0,0-2.268-1.7,1.877,1.877,0,0,0-.253.9,4.449,4.449,0,0,0-2.312-.642,1.913,1.913,0,0,0,.045.959,5.192,5.192,0,0,0-3-.795,3.6,3.6,0,0,0,.522,1.471,5.744,5.744,0,0,0-3.132-.286,2.17,2.17,0,0,0,.358.854,4.414,4.414,0,0,0-2.5-.617,1.87,1.87,0,0,0,.088.934,4.449,4.449,0,0,0-2.388.233,1.91,1.91,0,0,0,.387.878,5.191,5.191,0,0,0-3.083.336,3.6,3.6,0,0,0,1.017,1.185,5.741,5.741,0,0,0-3.025.86c.507,1.208,8.383,4.991,8.383,4.991a1.481,1.481,0,0,0,.5-1.556,1.409,1.409,0,0,0,.594-1.41l.03.059a1.821,1.821,0,0,0,1.33-1.106l.019-.038,1.782-.208.427-.043c1.151,1.3,2.108,2.321,2.108,2.321a1.48,1.48,0,0,0,1.026-1.272,1.409,1.409,0,0,0,1.062-1.1l.007.066a1.824,1.824,0,0,0,1.638-.554l.031-.029,1.738.446,1.887.516S1942.491-5861.082,1941.218-5862.09Z" transform="translate(-1877.824 5863.794)" fill="#f79a00"/>
  <path id="Path_118" data-name="Path 118" d="M1782.974-5774.9c-5.786.181-20.021-.937-23.854-2.052s-6.214-.785-2.314,3.021,16.026,5.281,20.584,5.838S1782.974-5774.9,1782.974-5774.9Z" transform="translate(-1753.321 5799.417)" fill="#070303"/>
  <path id="Path_119" data-name="Path 119" d="M1887.729-5712.37c.226.9,2.182,5.569,2.408,6.322s.978,1.655.377,2.106-1.728,2.032-1.278,2.482,1.429-2.106,2.407-1.806,1.538,1.489,1.881,2.258c.8,1.789,1.355,3.011,1.731,2.559s-1.354-3.613-.9-3.613,2.078,1.591,2.078,1.591c1.911,1.252,1.234-.89-.8-1.956s-3.387-1.6-4.064-2.95-2.86-6.994-2.86-6.994Z" transform="translate(-1852.494 5750.813)" fill="#d4630f"/>
  <g id="Group_30" data-name="Group 30" transform="translate(12.279 4.111)">
    <path id="Path_120" data-name="Path 120" d="M1823.843-5820.457c1.031-2.535-1.3-6.112.835-8.632s-.142-5.931,1.163-8.185,5.145.567,5.547-.481,3.694-2.832,6.647-2.143,6.716-2.665,7.334-3.321c.551-.585,4.128-.822,7.161-.192a15.157,15.157,0,0,0-12.794-3.993c-7.117,1.151-7.476,2.829-10.3,2.892s-10.519,3.8-11.915,5.024-9.794,5.1-11.2,6.07-9.685,4.547-8.962,6.89c.66,2.138,10.544-4.236,13.842-4.181a5.013,5.013,0,0,0-2.464.939c-1.792,1.413-9.19,6.2-5.947,7.32s6.47.547,7.741,1.882c1.213,1.273,1.752,6.3,14.835,11.126C1826.114-5812.072,1823.075-5818.57,1823.843-5820.457Z" transform="translate(-1797.306 5847.601)" fill="#f1d346"/>
  </g>
  <path id="Path_121" data-name="Path 121" d="M1825.894-5786.417c-3.686,1.02-27.442,1.907-28.484-1.89s11.132-8.832,15.414-10.151,17.5-4.685,22.036-2.8C1837.245-5800.273,1831.611-5788,1825.894-5786.417Z" transform="translate(-1785.058 5817.554)" fill="#c6a71f"/>
  <path id="Path_122" data-name="Path 122" d="M1895.8-5857.655" transform="translate(-1858.516 5859.213)" fill="#c6a71f"/>
  <path id="Path_123" data-name="Path 123" d="M1893.05-5847.361c-7.117,1.15-7.476,2.828-10.3,2.892s-10.519,3.8-11.915,5.024a12.945,12.945,0,0,1-1.875,1.184c-.484,2.815-.233,5.772,2.673,6.419l-.873.981c2.655-.074,5.694-.146,8.131-.171.341-2.139-.881-2.8.952-3.506,2.016-.777,6.972,1.357,7.373.31s1.184-6.314,4.137-5.626,6.716-2.665,7.334-3.321c.551-.585,4.128-.822,7.161-.193A15.157,15.157,0,0,0,1893.05-5847.361Z" transform="translate(-1838.341 5851.679)" fill="#c6a71f"/>
  <path id="Path_124" data-name="Path 124" d="M2006.643-5804.507c1.572.221,6.9,1.307,7.114,2.181s-8.038,1.4-9.456,1.284-2.318-2.771-.572-2.862A9.15,9.15,0,0,0,2006.643-5804.507Z" transform="translate(-1938.328 5819.558)" fill="#070303"/>
  <path id="Path_125" data-name="Path 125" d="M1942.862-5823.908c.105-.352.2-.688.287-1,.863-3.2,3.314-6.737,4.042-7.823s.758-1.068.021-1.279a5.013,5.013,0,0,1-2.627-1.762c-.36-.779.956-1.031,1.857-.48s3.982.823,3.306-1.425a3.086,3.086,0,0,0-.433-.908,6.437,6.437,0,0,0-1.016-3.061c-2.352-3.333-7.858-7.658-14.975-6.508s-7.807,2.807-10.189,3.076c-.122.013-.258.015-.4.031C1923.773-5840.684,1927.869-5832.838,1942.862-5823.908Z" transform="translate(-1878.613 5852.269)" fill="#fff"/>
  <path id="Path_126" data-name="Path 126" d="M1981.458-5816a1.083,1.083,0,0,0-.125-.5c-1.135-2.938-4.558-.967-5.7-.135-.224.162-.861.7-.861.7s.654.392.861.538a5.6,5.6,0,0,0,2.727.845c.36.029.682.033.932.028l.051,0c.1,0,.19-.006.283-.015.126-.008.2-.015.2-.015h0C1980.753-5814.708,1981.458-5815.3,1981.458-5816Z" transform="translate(-1917.435 5829.667)" fill="#070203"/>
  <g id="Group_31" data-name="Group 31" transform="translate(60.266 11.968)">
    <path id="Path_127" data-name="Path 127" d="M1986.326-5815.487a1.926,1.926,0,0,1,2.147-1.145,1.449,1.449,0,0,1,.386,2.688C1987.289-5813.041,1986.326-5815.487,1986.326-5815.487Z" transform="translate(-1986.326 5816.654)" fill="#717171"/>
    <path id="Path_128" data-name="Path 128" d="M1991.125-5814.69a1.2,1.2,0,0,1-1.022,1.363,1.2,1.2,0,0,1-1.363-1.021,1.2,1.2,0,0,1,1.021-1.363A1.2,1.2,0,0,1,1991.125-5814.69Z" transform="translate(-1988.118 5815.96)" fill="#070303"/>
    <circle id="Ellipse_6" data-name="Ellipse 6" cx="0.304" cy="0.304" r="0.304" transform="translate(1.261 0.629)" fill="#fff"/>
  </g>
  <path id="Path_129" data-name="Path 129" d="M1935.116-5844.886c5.762-2.045,12.826,5.762,12.826,5.762a1.494,1.494,0,0,0,1.249-.62,5.618,5.618,0,0,0-.818-1.907c-2.352-3.333-7.858-7.658-14.975-6.508s-7.807,2.807-10.189,3.076c-.122.013-.258.015-.4.031a17.887,17.887,0,0,0,1.823,4.541Z" transform="translate(-1878.668 5852.269)" fill="#070303"/>
  <path id="Path_130" data-name="Path 130" d="M1832.411-5782.567c-6.623,2.489-14.749,5.947-26.477,4.477,6.109,2.006,23.271,1.246,26.358.391,4.352-1.2,8.654-8.6,9.41-12.5C1839.874-5787.786,1836.575-5784.133,1832.411-5782.567Z" transform="translate(-1791.465 5808.885)" fill="#070303"/>
  <path id="Path_131" data-name="Path 131" d="M1824.161-5799.106h0a98.225,98.225,0,0,0-11.337,2.673c-4.282,1.32-16.456,6.354-15.414,10.151C1803.658-5793.062,1824.161-5799.106,1824.161-5799.106Z" transform="translate(-1785.057 5815.529)" fill="#070303"/>
  <path id="Path_132" data-name="Path 132" d="M1879.2-5788.7s4.793,2.6,5.846,7.222a1.032,1.032,0,0,0,1.527-.229s.822-4.909-6.109-6.993A1.63,1.63,0,0,0,1879.2-5788.7Z" transform="translate(-1846.134 5807.862)" fill="#fff"/>
</svg>
