<svg id="Group_39" data-name="Group 39" xmlns="http://www.w3.org/2000/svg" width="78.181" height="70.7" viewBox="0 0 78.181 70.7">
  <path id="Path_135" data-name="Path 135" d="M1808.831-5029.928a3.579,3.579,0,0,0-1.392,1.133,8.511,8.511,0,0,0-2.907-3.551,3.653,3.653,0,0,0-.986,1.547,9.926,9.926,0,0,0-3.808-4.545,6.882,6.882,0,0,0-.8,2.875,10.979,10.979,0,0,0-4.581-3.9c-.458.692-.506,2.971-.367,5.71a21.27,21.27,0,0,0-1.392-1.917q-.295-.367-.6-.7c-.041-.046-.079-.087-.113-.124l-.053-.058c-.1-.1-.153-.16-.153-.16v0a13.778,13.778,0,0,0-5.37-3.456c-1.521,2.8,3.294,23.528,3.294,23.528a3,3,0,0,0,1.6.021v0c.036-.01.071-.022.107-.034s.068-.021.1-.032l.084-.03.107-.042c2.307-.933,3.506-3.9,3.675-4.346.023.171.037.265.037.265a2.831,2.831,0,0,0,3.006-.856,2.7,2.7,0,0,0,2.875-.552l-.061.11a3.482,3.482,0,0,0,3.171.94,6.6,6.6,0,0,0,6.128-6.057A8.149,8.149,0,0,0,1808.831-5029.928Z" transform="translate(-1782.227 5037.102)" fill="#2a6e9f"/>
  <path id="Path_136" data-name="Path 136" d="M1791.2-5013.622v0l.043-.014c2.284-7.538-1.839-17.989-3.881-23.123-1.154-.634-1.06-.416-1.06-.416-1.521,2.8,3.294,23.527,3.294,23.527A3,3,0,0,0,1791.2-5013.622Z" transform="translate(-1782.227 5037.208)" fill="#0d0f11"/>
  <g id="Group_36" data-name="Group 36" transform="translate(30.38 23.685)">
    <path id="Path_137" data-name="Path 137" d="M1890.589-4937.824c-.021-.07-.038-.138-.054-.2,2.623-2.887,4.976-6.1,4.976-6.1l0,0c3.808,2.476,10.5,4.331,12.333,4.956,2.017.688,5.541,3.312,6.991,4.478s3.1,4.541,6.513,8.572c4.683,3.281,11,7.337,15.273,8.647,0,0,2.645,1.6.336,3.234a6.855,6.855,0,0,1-1.675,1.126c.069.541-.154,1.141-1.038,1.679a6.815,6.815,0,0,1-1.611.954c-.1.241-.186.4-.186.4-.914,2.57-3.383.742-3.383.742-4.78-5.956-20.321-14.8-20.321-14.8l-1.389-3.166-1.679.142-7.414-3.765a16.776,16.776,0,0,1-6.371-4.375c-.444-.485-.232-1.007-.789-.964S1890.833-4937.015,1890.589-4937.824Z" transform="translate(-1890.534 4944.128)" fill="#2e2f2f"/>
    <path id="Path_138" data-name="Path 138" d="M1954.711-4875.907c2.814,1.84,1.264-.14,5.491,2.072s18.136,12.856,20.067,12.931,1.845-1.31.411-2.316-4.123-3.208-3.1-2.9,7.915,4.847,8.574,3.48-10.458-7.356-13.362-8.909-5.569-3.668-6.937-4.423C1961.281-4878.5,1954.711-4875.907,1954.711-4875.907Z" transform="translate(-1938.381 4894.141)" fill="#0d0f11"/>
  </g>
  <path id="Path_139" data-name="Path 139" d="M1795.545-4802.37c5.361-.179,14.262-1.444,20.882-1.469s11.582,2.242,12.781,1.948,5.229-1,6.833-2.395,1.394-.282.268.892-3.3,2.493-1.59,3.252,11.7,3.534,13.36,3.348,2.093,2.951-.336,3.35-6.884-.44-9.255-1.013-10.5-4.031-12.958-4.755-7.794-1.706-11.409-.779a72.071,72.071,0,0,1-16.47,1.074C1794.716-4799.3,1793.135-4802.289,1795.545-4802.37Z" transform="translate(-1788.457 4864.04)" fill="#0b0a0c"/>
  <path id="Path_140" data-name="Path 140" d="M1949.174-4920.927c4.875,2.591,6.019,4.955,8.416,8.091s3.382,5.983-.183,4.342-2.307-1.335-4.554-1.509-4.607.692-8.434-1.517-7.747-8.312-6.59-9.786S1943.868-4923.746,1949.174-4920.927Z" transform="translate(-1895.26 4951.863)" fill="#255876"/>
  <path id="Path_141" data-name="Path 141" d="M1778.4-4940.495c-1.676.688-7.264,3.4-7.255,4.424s9.29-.725,10.826-1.253,1.781-3.722-.177-3.329A10.457,10.457,0,0,1,1778.4-4940.495Z" transform="translate(-1771.142 4965.247)" fill="#2e2f2f"/>
  <path id="Path_142" data-name="Path 142" d="M1837.206-4835.753c-1.075,1.3-7.371,7.522-7.908,8.445s.077,2.457,0,3.147-.845.427-1.075-.631-.844-1.826-1.382-1.365a14.827,14.827,0,0,0-2.073,4.914c0,.844-1.151,1.919-.921,0s2.227-5.144,1.536-4.837-2.38,1.919-3.071,1.843-.614-1,.921-1.92,4.223-1.228,5.605-2.763,6.065-6.373,6.6-6.833S1837.206-4835.753,1837.206-4835.753Z" transform="translate(-1808.979 4887.168)" fill="#2a6e9f"/>
  <path id="Path_143" data-name="Path 143" d="M1910.6-4829.757c-.057.948-1.145,5.994-1.231,6.791s-.671,1.844.017,2.185,2.113,1.714,1.746,2.25-1.827-1.846-2.752-1.36-1.263,1.781-1.464,2.616c-.467,1.944-.795,3.273-1.256,2.891s.681-3.877.228-3.792-1.785,1.984-1.785,1.984c-1.682,1.614-1.4-.661.434-2.11s3.1-2.241,3.523-3.721,1.557-7.55,1.557-7.55Z" transform="translate(-1869.442 4882.544)" fill="#2a6e9f"/>
  <path id="Path_144" data-name="Path 144" d="M1838.8-4965.78c-1.347-1.108-3.156-1.289-4.465-2.66s-8.79-5.857-11.658-6.174-3.083-2.056-10.213-3.863a15.763,15.763,0,0,0-15.669,5.1,6.572,6.572,0,0,0-1.307,3.02,3.166,3.166,0,0,0-.522.884c-.888,2.225,2.267,2.224,3.232,1.745s2.28-.1,1.845.655a5.125,5.125,0,0,1-2.828,1.555c-.768.148-.735.132-.094,1.3s2.817,4.986,3.407,8.312c.059.331.127.684.2,1.053,0,.045,0,.263.019.581a23.016,23.016,0,0,0,1.161,3.928,16.13,16.13,0,0,0,2.67,5.466c1.671,2.47,4.638,3.974,8.34,5.881,4.574,2.356,11.748.827,18.494-2.354s6.921-5.99,8.332-7.232-1.739-4.89,1.658-5.731-3.693-6.375-5.388-7.972c-.629-.593,4.908,3.552,3.958,3.336,3.357.24,4.186,1.3,5.048-.815C1845.972-4962.085,1840.151-4964.674,1838.8-4965.78Z" transform="translate(-1788.791 4993.775)" fill="#fcd916"/>
  <g id="Group_37" data-name="Group 37" transform="translate(10.436 14.845)">
    <path id="Path_145" data-name="Path 145" d="M1839.253-4949.585c-.821-2.668,1.873-6.1-.076-8.848s.675-6.014-.448-8.422-5.28.115-5.594-.986-3.5-3.208-6.563-2.774-6.587-3.31-7.156-4.032c-.507-.644-4.122-1.2-7.26-.837a15.465,15.465,0,0,1,13.36-2.912c7.13,1.807,7.344,3.545,10.213,3.862s10.35,4.8,11.659,6.174,3.118,1.552,4.465,2.66,7.168,3.7,6.223,6.012c-.862,2.113-1.691,1.055-5.048.815.95.216-4.586-3.928-3.958-3.335,1.694,1.6,8.784,7.128,5.388,7.971s-.247,4.489-1.658,5.732c-1.347,1.186-2.345,6.241-16.074,9.978C1836.194-4941.267,1839.864-4947.6,1839.253-4949.585Z" transform="translate(-1812.155 4978.869)" fill="#fcd916"/>
  </g>
  <path id="Path_146" data-name="Path 146" d="M1850.8-4981.953c-1.413-1.151-3.592-1.474-4.965-2.9-1.076-1.119-6.451-4.287-10-5.41-4.5-2.23-7.477-10.147-7.477-10.147l-9.474,2.513-8-1.082,1.083,3.025-1.38-.439-.139,4.25c2.434-1.026,3.579.1,3.839.248,3.618,2.042,5.282.837,7.009.133,7.288-2.972,7.551,8.648,7.551,8.648,2.808.333,5.686,3.761,5.075,5.091-.837,1.822,1.7,2,4.6,2.637s1.081,1.993,2.443,2.739,3.639-4.579,6.9-3.3c.061.024-6.619-3.183.208.1,4.367,2.091,8.646,1.928,9.356.215C1858.441-4978.054,1852.213-4980.8,1850.8-4981.953Z" transform="translate(-1800.448 5009.773)" fill="#2a6e9f"/>
  <path id="Path_147" data-name="Path 147" d="M1824-4960.116a6.241,6.241,0,0,0-2.1,2.328s1.829,1.3,3.117,1.027l.815-2.049Z" transform="translate(-1808.979 4979.733)" fill="#151311"/>
  <g id="Group_38" data-name="Group 38" transform="translate(13.726 19.131)">
    <path id="Path_148" data-name="Path 148" d="M1825.082-4959.671a3.152,3.152,0,0,1,2.533-2.336,3.077,3.077,0,0,1,2.471.83,2.469,2.469,0,0,1-1.877,2.879A2.554,2.554,0,0,1,1825.082-4959.671Z" transform="translate(-1825.082 4962.025)" fill="#554b49"/>
    <path id="Path_149" data-name="Path 149" d="M1831.21-4959.739a1.777,1.777,0,0,1-1.505,1.965,1.7,1.7,0,0,1-2.035-1.329,1.776,1.776,0,0,1,1.506-1.964A1.7,1.7,0,0,1,1831.21-4959.739Z" transform="translate(-1826.997 4961.334)" fill="#151311"/>
    <ellipse id="Ellipse_7" data-name="Ellipse 7" cx="0.529" cy="0.489" rx="0.529" ry="0.489" transform="matrix(0.958, -0.287, 0.287, 0.958, 0.852, 1.065)" fill="#fdfefb"/>
  </g>
  <path id="Path_150" data-name="Path 150" d="M1813.525-4952.8s-2.553,1.359-3.166,2.38c0,0-.206.536.434.408,0,0,2.578-2.327,3.289-1.922l-.3-.657Z" transform="translate(-1800.356 4974.276)" fill="#151311"/>
</svg>
