<svg id="Group_42" data-name="Group 42" xmlns="http://www.w3.org/2000/svg" width="80.427" height="66.484" viewBox="0 0 80.427 66.484">
  <path id="Path_153" data-name="Path 153" d="M1784.709-4099.576c-.429-.109-.306-.521.327-.7,2.427-.69,3.12-.658,5.389-1.395,3.065-.994,2.987-3.356,5.532-5.212a9.177,9.177,0,0,1,4.244-1.763c-.032-.038-.064-.074-.1-.115a4.89,4.89,0,0,0-3.461-2.139c-1.591-.217-3.02-.219-4.34-1.169-1.14-.821-1.784-2.166-2.814-3.136a17.031,17.031,0,0,0-3.85-2.518,3.207,3.207,0,0,1,1.025.029c3.828.776,4.393,5.963,8.418,6.037A6.616,6.616,0,0,1,1799.9-4110c.364.313.828.79,1.336,1.252a22.366,22.366,0,0,1,4.03.2c4.27.533,8.859,4.5,10.831,9.188a18.2,18.2,0,0,0,2.689,4.849,3.477,3.477,0,0,1,.337-.335,3.059,3.059,0,0,0,1.489-2.6,9.361,9.361,0,0,0-.072-3.329c-.344-1.182-.957-1.939-1.173-2.964a14.344,14.344,0,0,1-.794-1.211c-.44-.789-.543-1.781-1.37-2.408s-1.887-.839-2.728-1.47c-1.225-.918-.34-1.529-.577-2.841a1.215,1.215,0,0,1,.548.137c.179,1.3-.162,1.684,1.01,2.386a8.117,8.117,0,0,1,2.561,1.655,15.361,15.361,0,0,1,1.383,2.042c.393-1.692,1.664-2.433,2.224-3.972.509-1.4-.651-3.238-1.117-4.5a7.57,7.57,0,0,0-.8-1.982,15.927,15.927,0,0,0-1.489-1.4c.779.285,1.889.6,2.311,1.457.389.789.618,1.75,1.1,2.6a5.5,5.5,0,0,1,.024,5.862c-1.747,3.326,1.762,5.791,1.946,9.2a5.794,5.794,0,0,1-1.789,4.287,10.413,10.413,0,0,0-1.2,1.587,22.027,22.027,0,0,1,3.345,7.065c.594,2.7,3.952,3.76,6.851,4.979a4.276,4.276,0,0,0,.434.152c.356.237.655.4,1.021.653l2.609,1.608c5.285,2.367,3.84,6.753,3.84,6.753h-6.543c-.33-1.477-1.329-4.109-1.964-4.445-.209-.111-.456-.208-.722-.364h0a14.252,14.252,0,0,1-1.276-.865c-.742-.553-1.361-.981-1.906-1.349l-1.889-1.3a17.892,17.892,0,0,1-3.754-4.095c-3.165-4.317-1.549-6.02-4.47-8.959-2.6-2.616-1.557-3.578-2.974-7.177a2.864,2.864,0,0,0-1.188-.85c-1.539-.527-2.971.472-4.273,1.283-1.227.766-2.19,2.458-3.731,1.814-.681-.284-1.066-1.229-1.865-1.113-.826.119-1.247,1.136-2.059,1.38-.3.091-.385.178-.7.027.915-.77,1.884-2.278,3.06-2.39.862-.082,1.118.587,1.828.826.96.323.99-.263,1.733-.954,1.362-1.268,3.92-2.715,5.958-2.494-2.725-3.949-8.486-4.635-11.869-4.656-3.654-.023-5.826,3.349-6.967,5.3s-3.895,1.066-6.417,1.9A3.392,3.392,0,0,1,1784.709-4099.576Z" transform="translate(-1778.318 4137.574)" fill="#070303"/>
  <path id="Path_154" data-name="Path 154" d="M1920.439-4062.788c.269,1.2,3.68,10.21,2.747,11.681a7.456,7.456,0,0,1-1.644,2.283,6.145,6.145,0,0,0-1.609,3.524c.248,1.608,1.446,2.219,1.137.547-.1-.556.071-2.281.317-1.663s.092,2.669,2.052,4.061c.688.489.955-.787.4-1.164-1.442-.974-1.959-3.633-1.711-3.751.577-.277.716,1.417,1.134,2.014.29.413,1.475.665,1.088-.112-.49-.982-1.542-1.2-.775-2.838a4.116,4.116,0,0,1,1.1-1.9c.686-.514-2.485-11.87-3.053-12.657A.7.7,0,0,0,1920.439-4062.788Z" transform="translate(-1879.392 4096.812)" fill="#d4630f"/>
  <path id="Path_155" data-name="Path 155" d="M1870.831-4152.79c4.081,1.515,30.934,4.826,32.484.62s-11.767-11.1-16.494-13.006-19.387-7.011-24.717-5.318C1859.3-4169.6,1864.5-4155.139,1870.831-4152.79Z" transform="translate(-1835.671 4177.179)" fill="#583c22"/>
  <path id="Path_156" data-name="Path 156" d="M1808.766-4173.966c-4.411-1.285-8.141-5.042-8.759-5.681s-.348-1.351-1.1-1.274-.389-1-.748-2.088-.143-1.771-1.4-1.205a9.54,9.54,0,0,1-5.076.523c-1.217-.368-3.721.56-4.49.628s-1.676,1.289-2.575.894a14.506,14.506,0,0,1-2.671-2.172c.086-.407-.01-1.24.173-2.322.306-1.8,1.39-4.3,5.4-6.686,6.407-3.814,10.412-2.935,15.592.692s13.937,6.752,16.686,7.607a46.507,46.507,0,0,1,10.159,5.147c2,1.522,5.408,6.277,10.154,11.6" transform="translate(-1776.448 4195.826)" fill="#a47236"/>
  <path id="Path_157" data-name="Path 157" d="M1786.509-4151.637a29.956,29.956,0,0,1,6.5,3.228c1.579,1.123,2.133,2.62,4.006,6.626a24.052,24.052,0,0,0,8.467,9.815c3.721,2.516,9.366,5.8,12.288,5.991a73.925,73.925,0,0,0,10.534-.429,14.93,14.93,0,0,0,7.671-3.637,8.327,8.327,0,0,1,5.467-2.273c1.864.079,6.294-.021,6.939-.968s-8.072-5.731-12.956-6.214-29.3-9.326-30.857-11.376-4.914-4.6-7.091-4.535-7.74,1.986-8.71,2.49S1786.509-4151.637,1786.509-4151.637Z" transform="translate(-1779.849 4165.672)" fill="#a47236"/>
  <path id="Path_158" data-name="Path 158" d="M1783.143-4175.883l.9-.75a20.615,20.615,0,0,1-2.047-1.793c.006-.028.011-.058.015-.09a12.754,12.754,0,0,0,2.335-1.732s.922-5.4,8.017-4.555a17.367,17.367,0,0,0,8.995-3.1c.588.351,1.186.741,1.8,1.172.458.321.946.639,1.454.951,0,0-8.864,12.792-13.362,14.5C1791.254-4171.284,1790.721-4173.069,1783.143-4175.883Z" transform="translate(-1776.483 4189.918)" fill="#a47236"/>
  <path id="Path_159" data-name="Path 159" d="M1946.26-4059.3c.961.97.926,4.082,1.72,4.9s2.935.767,3.423-.765-1.117-4.8-2.2-5.459S1946.26-4059.3,1946.26-4059.3Z" transform="translate(-1899.039 4095.056)" fill="#917e6f"/>
  <path id="Path_160" data-name="Path 160" d="M1778.974-4152.947" transform="translate(-1774.227 4163.834)" fill="#0d2779"/>
  <path id="Path_161" data-name="Path 161" d="M1802.316-4164.111a2.429,2.429,0,0,1,1.411-2.358,2.459,2.459,0,0,1,2.091.222,2.02,2.02,0,0,1-.781,2.679A2.092,2.092,0,0,1,1802.316-4164.111Z" transform="translate(-1791.642 4174.028)" fill="#fff9ce"/>
  <path id="Path_162" data-name="Path 162" d="M1806.454-4164.67a1.413,1.413,0,0,1-.706,1.87,1.413,1.413,0,0,1-1.87-.707,1.413,1.413,0,0,1,.707-1.869A1.413,1.413,0,0,1,1806.454-4164.67Z" transform="translate(-1792.715 4173.201)" fill="#151311"/>
  <circle id="Ellipse_8" data-name="Ellipse 8" cx="0.415" cy="0.415" r="0.415" transform="translate(11.189 8.439)" fill="#fdfefb"/>
  <path id="Path_163" data-name="Path 163" d="M1933.845-4112.116c5.824,5.073,13.728,11.418,19.286,13.786,0,0,3.325,2.523-.008,4.392a9.246,9.246,0,0,1-2.41,1.274c.015.737-.369,1.511-1.633,2.109a9.215,9.215,0,0,1-2.3,1.051c-.173.309-.307.511-.307.511-1.593,3.323-4.649.517-4.649.517-5.574-8.68-25.193-22.762-25.193-22.762l-1.415-4.45-2.276-.048" transform="translate(-1874.179 4136.071)" fill="#a47236"/>
  <path id="Path_164" data-name="Path 164" d="M1913.545-4114.118c3.537,3.067,1.843.086,7.3,3.957s22.528,21.1,25.266,21.62,2.98-1.349,1.2-3-5.047-5.178-3.666-4.548,10.032,8.189,11.334,6.507-13.005-12.091-16.745-14.8-6.991-6.1-8.747-7.411C1923.611-4116.154,1913.545-4114.118,1913.545-4114.118Z" transform="translate(-1874.631 4135.218)" fill="#76522a"/>
  <path id="Path_165" data-name="Path 165" d="M1858.4-4127.405c3.422,2.69,27.976,14.056,30.738,10.526s-7.809-14.163-11.726-17.428-16.315-12.6-21.906-12.624C1852.57-4146.939,1853.095-4131.577,1858.4-4127.405Z" transform="translate(-1830.002 4159.345)" fill="#583c22"/>
  <path id="Path_166" data-name="Path 166" d="M1765.727-4151.4c-1.217.781-5.385,3.612-5.447,4.492s1.428.405,2.671.106a70.525,70.525,0,0,0,6.482-2.927c.653-.295,1.379-1.738.543-1.557s-2.945.74-3.523.476S1766.429-4151.849,1765.727-4151.4Z" transform="translate(-1760.278 4162.781)" fill="#2e2f2f"/>
</svg>
