<svg id="Group_47" data-name="Group 47" xmlns="http://www.w3.org/2000/svg" width="99.469" height="67.281" viewBox="0 0 99.469 67.281">
  <path id="Path_169" data-name="Path 169" d="M1752.55-3268.891c-1.944,1.095-4.563,4.762-9.386,8.863-6.184,2.962-14.448,6.522-19.764,7.232,0,0-3.442,1.372-1.032,3.76a8.186,8.186,0,0,0,1.76,1.661,2.046,2.046,0,0,0,.9,2.191,8.178,8.178,0,0,0,1.719,1.443c.075.306.141.51.141.51.577,3.22,3.856,1.542,3.856,1.542,6.823-6.108,26.942-13.516,26.942-13.516l2.264-3.473,1.959.5" transform="translate(-1718.269 3291.014)" fill="#181926"/>
  <path id="Path_170" data-name="Path 170" d="M1757.13-3230.183c-3.69,1.624-1.468-.414-6.9,1.373s-23.977,11.65-26.275,11.36-1.925-1.912-.031-2.821,5.507-2.986,4.237-2.825-10.314,4.181-10.826,2.435,13.814-6.65,17.555-7.918,7.307-3.246,9.074-3.871C1749.867-3234.538,1757.13-3230.183,1757.13-3230.183Z" transform="translate(-1715.144 3264.28)" fill="#5e4a20"/>
  <path id="Path_171" data-name="Path 171" d="M1855.92-3159.909c5.729-2.322,14.855-7.222,22.007-9.876s13.419-2.171,14.6-2.964,5.26-3.155,6.441-5.3,1.4-.859.644.858-2.577,4-.429,4.149,14.064-.821,15.781-1.68,3.435,2.362.966,3.758-7.622,2.254-10.413,2.576-12.961-.193-15.9,0-9.109,1.248-12.651,3.684-14.064,6.946-17.392,7.7S1853.345-3158.866,1855.92-3159.909Z" transform="translate(-1817.696 3224.157)" fill="#0d0f11"/>
  <path id="Path_172" data-name="Path 172" d="M2023.246-3339.456a96.516,96.516,0,0,1,9.661,0c1.074.214,1.181,1.074,0,1.181s-8.051,3.65-8.8,3.758-1.181-1.52-.859-2.531A5.47,5.47,0,0,0,2023.246-3339.456Z" transform="translate(-1943.047 3343.693)" fill="#818181"/>
  <path id="Path_173" data-name="Path 173" d="M1937.6-3187.825c1.5,1.5,5.689,6.226,6.549,7.085s2.469,1.4,3.113,2.577.859,3.543,0,3.972,1.932-.215,1.718-2.04.537-1.181.966,0-.536,4.4-1.5,4.938,2.362-.537,2.577-2.147.536-2.9,0-4.08,1.5,1.4,1.181,2.577,1.932-1.825-.429-3.758-3.542-.644-5.8-2.362a71.011,71.011,0,0,1-6.656-6.763Z" transform="translate(-1879.306 3230.602)" fill="#181926"/>
  <path id="Path_174" data-name="Path 174" d="M1899.261-3194.029s6.978,10.843,8.052,11.809,2.469,1.18,3.113,1.61a2.849,2.849,0,0,1,.536,3.006c-.429,1.073-.966,2.576-.966,2.576s2.254-1.825,2.146-3.649.859,3.972-.429,4.509.879.329,1.379-.463c1.257-1.992.447-4.583-.2-5.871s1.5.752,1.611,1.825.537,2.684.751,1.5.322-4.187-2.469-5.367-4.3.06-5.48-2.171-6.221-9.853-6.221-9.853Z" transform="translate(-1850.731 3235.625)" fill="#181926"/>
  <path id="Path_175" data-name="Path 175" d="M1787.908-3354.063c-3.513-2.318-8.716-2.576-14.5,1.61s-13.732,9.876-17.167,12.131-12.989,6.656-16.425,6.978-12.775,1.181-16.1.859-15.244-1.611-14.922-.644,6.081,1.02,10.842,2.04a79.636,79.636,0,0,1,11.058,3.543c1.5.751.751,1.4-.966,2.147s.859,1.073,3.006.859,4.724-.107,6.549,1.181,10.628,6.012,13.1,7.73a26.425,26.425,0,0,0,20.075,3.435c9.339-2.362,18.25-11.809,18.465-19.538s-.46-11.4,0-13.419.839-2.9.044-2.791-2.3-.656-.473-1.133,2.779-2.532,1.6-2.507S1788.919-3353.4,1787.908-3354.063Z" transform="translate(-1708.782 3355.724)" fill="#5e5e6b"/>
  <path id="Path_176" data-name="Path 176" d="M1851.46-3282.679c-3.9.929-20.182,3.436-22.222,4.294a1.7,1.7,0,0,0,0,3.221c1.024.343,0,2.576,1.825,3.113s17.391-2.361,20.4-3.972S1852.933-3283.029,1851.46-3282.679Z" transform="translate(-1797.669 3301.301)" fill="#181926"/>
  <path id="Path_177" data-name="Path 177" d="M1739.986-3322.533c7.181.043,19.721-.711,21.689-6.373,2.783-8.008,15.31-7.859,15.31-7.859.951-7.187,10.09-9.613,14.432-10.363.013-.352-.109-.5-.46-.451-.795.107-2.3-.656-.473-1.133s2.779-2.532,1.6-2.507-3.169-1.812-4.18-2.479c-3.513-2.317-8.716-2.576-14.5,1.61s-13.732,9.877-17.167,12.131-12.989,6.656-16.425,6.978-12.775,1.181-16.1.859-15.244-1.611-14.922-.644,6.081,1.019,10.842,2.04a79.589,79.589,0,0,1,11.058,3.542c1.5.751.751,1.4-.966,2.147s.859,1.074,3.006.859,4.724-.107,6.549,1.18C1739.452-3322.871,1739.693-3322.715,1739.986-3322.533Z" transform="translate(-1708.782 3355.452)" fill="#7b6225"/>
  <path id="Path_178" data-name="Path 178" d="M1811.433-3268c-2.9,1.193-4.08,1.723-5.26,4.375s-6.549,4.508-7.407,6.1,5.9,2.519,20.4-1.061,14.449-8.882,12.968-9.943S1811.433-3268,1811.433-3268Z" transform="translate(-1775.785 3291.015)" fill="#181926"/>
  <path id="Path_179" data-name="Path 179" d="M1875.267-3304.572c-3.507-.111-13.049,6.661-16.108,7.651s-6.556.506-5.554,2.1,7.791.391,6.308,1.968-11.736,9.14-6.584,8.86,21.182.927,27.087-2.522S1888.063-3304.167,1875.267-3304.572Z" transform="translate(-1815.432 3317.606)" fill="#5e4a20"/>
  <path id="Path_180" data-name="Path 180" d="M1983.614-3335.3s1.03-2.173,2.165-1.7c0,0,2.133.9-.5,4.147a4.635,4.635,0,0,1-3.458,2.045s-4.213.076-5.224-2.547c0,0-.32-1.984,1.343-1.81s3.775,1.953,3.775,1.953A4.238,4.238,0,0,0,1983.614-3335.3Z" transform="translate(-1908.346 3341.816)" fill="#d7b200" opacity="0.46"/>
  <g id="Group_45" data-name="Group 45" transform="translate(71.276 5.409)">
    <path id="Path_181" data-name="Path 181" d="M1992.651-3333.6a2.5,2.5,0,0,0-2.739-.708,2.532,2.532,0,0,0-1.372,1.675,2.08,2.08,0,0,0,2.51,1.4A2.154,2.154,0,0,0,1992.651-3333.6Z" transform="translate(-1988.539 3334.494)" fill="#a9a9a8"/>
    <path id="Path_182" data-name="Path 182" d="M1991.658-3332.019a1.456,1.456,0,0,0,1.87.86,1.456,1.456,0,0,0,.86-1.871,1.455,1.455,0,0,0-1.87-.859A1.455,1.455,0,0,0,1991.658-3332.019Z" transform="translate(-1990.796 3334.111)" fill="#151311"/>
    <circle id="Ellipse_9" data-name="Ellipse 9" cx="0.427" cy="0.427" r="0.427" transform="translate(2.235 0.356)" fill="#fdfefb"/>
  </g>
</svg>
