<svg xmlns="http://www.w3.org/2000/svg" width="76.968" height="84.513" viewBox="0 0 76.968 84.513">
  <g id="Group_2" data-name="Group 2" transform="translate(0 0)">
    <path id="Path_5" data-name="Path 5" d="M-1119.481-4202.358c.284-.3.632-1.06,1.348-1.885,1.193-1.376,3.406-2.94,8.042-2.9,7.419.067,10.37,2.885,12.9,8.645s8.361,12.943,10.256,15.09,6.372,8.148,7.285,10.476,4.6,6.492,5.465,8.215,3.346,5.7,2.911,7.494-27.683-19.088-30.768-22.46-4.317-8.494-4.511-9.356.4-1.328-.277-1.651.189-1.056.443-2.162.793-1.581-.564-1.746a9.5,9.5,0,0,1-4.586-2.178c-.844-.941-3.453-1.447-4.143-1.786s-2.091.229-2.651-.571A14.463,14.463,0,0,1-1119.481-4202.358Z" transform="translate(1126.528 4207.141)" fill="#533977"/>
    <path id="Path_6" data-name="Path 6" d="M-1081.6-4011.344c-1.075.947-8.348,9.46-10.369,9.333a8.662,8.662,0,0,1-3.246-.4,7.152,7.152,0,0,0-4.492.33c-1.5,1.152-1.453,2.715.078,1.465.509-.417,2.364-1.2,1.872-.607s-2.669,1.587-2.991,4.362c-.113.975,1.336.533,1.408-.246.187-2.014,2.607-4.028,2.867-3.842.605.434-1.044,1.523-1.418,2.283-.259.526.148,1.874.723,1.045.727-1.048.365-2.244,2.458-2.376a4.785,4.785,0,0,1,2.547.056c.907.412,10.708-9.171,11.193-10.189A.809.809,0,0,0-1081.6-4011.344Z" transform="translate(1112.601 4061.166)" fill="#151311"/>
    <path id="Path_7" data-name="Path 7" d="M-1052.492-4018.6c-.862.936-8.462,9.5-9.253,9.531a8.562,8.562,0,0,0-3.945,1.851c-.695.813-1.494,2.333-.68,2.612.484.166,1.436-2.4,1.924-1.979.36.31-1.063,1.054-1.135,3.716-.016.574.492,2.51,1.347,1.895.482-.347-1.062-3.665.61-4.492.576-.286-.2,4.528.806,4.171s.6-2.922.574-3.7.583-2.8,1.543-2.327,1.743,3.867,1.847,4.48,1.844.105,1.215-1.108-1.826-4.164-1.3-5.035,9.276-8.726,9.214-9.692S-1051.632-4019.527-1052.492-4018.6Z" transform="translate(1087.188 4067.136)" fill="#151311"/>
    <path id="Path_8" data-name="Path 8" d="M-1032.577-4023.22c.317,1.321-1.322,3.949-1.068,5.052s2.1,2.168,3.306,1.118,1.53-4.657.948-5.78S-1032.577-4023.22-1032.577-4023.22Z" transform="translate(1062.553 4070.196)" fill="#df681f"/>
    <path id="Path_9" data-name="Path 9" d="M-1120.794-4177.472a30.07,30.07,0,0,1,4.041,6.126c.8,1.775,2.1,1.934,1.623,6.308a23.262,23.262,0,0,0,2.273,12.739c1.957,4.075,5.209,9.8,7.7,11.486a78.417,78.417,0,0,0,9.566,5.126c2.995,1.385,4.937,2.642,7.133,2.312a8.942,8.942,0,0,1,6.058.92c1.61,1.038,5.59,3.262,6.667,2.8s-4.1-9.068-8.172-12.023-21-23.18-21.287-25.73-1.9-6.464-3.867-7.543-7.919-2.348-9.047-2.428S-1120.794-4177.472-1120.794-4177.472Z" transform="translate(1127.507 4185.021)" fill="#df681f"/>
    <path id="Path_10" data-name="Path 10" d="M-977.539-4024.792c1.814,2.8,7.346,9.466,10.3,13.184s15.447,23.039,17.2,23.913,2.263-.382,1.368-1.87-2.438-4.552-1.625-3.854,5.24,7.583,6.432,6.654-6.517-10.856-8.536-13.44-9.579-14.712-10.637-15.86S-977.539-4024.792-977.539-4024.792Z" transform="translate(1020.705 4071.192)" fill="#0d2779"/>
    <path id="Path_11" data-name="Path 11" d="M-969.043-4032.275c1.917,2.451,12.629,13.451,14.672,11.854s-8.8-13.35-10.268-14.549-4.433,2.932-4.433,2.932" transform="translate(1014.392 4078.944)" fill="#193380"/>
    <path id="Path_12" data-name="Path 12" d="M-961.233-4024.167c.872,2.687,9.184,9.513,10.389,8.1s-5.124-8.537-6.588-9.8S-961.5-4024.985-961.233-4024.167Z" transform="translate(1008.562 4072.276)" fill="#0d2779"/>
    <path id="Path_13" data-name="Path 13" d="M-962.764-4028.992c.466,1.053,6.94,8.287,8.229,7.546s-3.643-8.893-5.4-9.228S-962.764-4028.992-962.764-4028.992Z" transform="translate(1009.689 4075.605)" fill="#193380"/>
    <path id="Path_14" data-name="Path 14" d="M-1054.86-4125.747c2.962,3.159,25.41,18.021,28.656,14.962s-5.558-15.1-8.92-18.9-14.157-14.843-19.654-15.7C-1057.668-4145.836-1059.456-4130.646-1054.86-4125.747Z" transform="translate(1080.445 4161.107)" fill="#0e204f"/>
    <path id="Path_15" data-name="Path 15" d="M-1082.772-4143.5c-4.026,3.492-5.475,7.6-3.974,10.714s11.148,12.868,13.768,10.553-.315-9.678-1.022-11.208S-1076-4149.372-1082.772-4143.5Z" transform="translate(1102.555 4160.738)" fill="#0d2779"/>
    <path id="Path_16" data-name="Path 16" d="M-1120.794-4191.875" transform="translate(1127.507 4195.759)" fill="#0d2779"/>
    <path id="Path_17" data-name="Path 17" d="M-1097.936-4200.063c-2.382-4.829-5.668-7.019-12.155-7.077-4.637-.043-6.85,1.521-8.042,2.9-.715.826-1.064,1.583-1.348,1.885,0,0,.226.933.532,1.832Z" transform="translate(1126.528 4207.141)" fill="#0d2779"/>
    <path id="Path_18" data-name="Path 18" d="M-1107.279-4190.15s6.854.042,10.856,1.178c-.271-.528-.522-1.049-.746-1.56-.3-.684-.607-1.325-.926-1.927a17.284,17.284,0,0,1-9.252-2.008c-5.6-4.382-9.17-.269-9.17-.269a12.746,12.746,0,0,1-2.881.266q-.03.037-.059.067a16.286,16.286,0,0,0,1.052,3.075A30.413,30.413,0,0,0-1107.279-4190.15Z" transform="translate(1126.51 4199.198)" fill="#fdfefb"/>
    <path id="Path_19" data-name="Path 19" d="M-1099.333-4188.249a2.943,2.943,0,0,1,2.946-1.555,2.981,2.981,0,0,1,2.027,1.546,2.449,2.449,0,0,1-2.5,2.284A2.536,2.536,0,0,1-1099.333-4188.249Z" transform="translate(1111.507 4194.251)" fill="#464650"/>
    <path id="Path_20" data-name="Path 20" d="M-1093.425-4187.24a1.713,1.713,0,0,1-1.909,1.493,1.713,1.713,0,0,1-1.493-1.91,1.714,1.714,0,0,1,1.909-1.492A1.713,1.713,0,0,1-1093.425-4187.24Z" transform="translate(1109.648 4193.737)" fill="#151311"/>
    <path id="Path_21" data-name="Path 21" d="M-1140.122-4188.793c-1.438.036-6.445.289-6.953,1s1.005,1.082,2.216,1.47a70.071,70.071,0,0,0,7.023.86c.708.088,2.071-.765,1.266-1.043s-2.886-.892-3.242-1.416S-1139.291-4188.813-1140.122-4188.793Z" transform="translate(1147.175 4193.463)" fill="#0d2779"/>
    <ellipse id="Ellipse_1" data-name="Ellipse 1" cx="0.503" cy="0.503" rx="0.503" ry="0.503" transform="translate(13.303 4.983)" fill="#fdfefb"/>
  </g>
</svg>
