<svg xmlns="http://www.w3.org/2000/svg" xmlns:xlink="http://www.w3.org/1999/xlink" width="129.927" height="123.245" viewBox="0 0 129.927 123.245">
  <defs>
    <radialGradient id="radial-gradient" cx="NaN" cy="NaN" r="NaN" gradientUnits="userSpaceOnUse">
      <stop offset="0.198" stop-color="#7f212c"/>
      <stop offset="0.232" stop-color="#832a34"/>
      <stop offset="0.347" stop-color="#8f464c"/>
      <stop offset="0.471" stop-color="#985b5e"/>
      <stop offset="0.608" stop-color="#9e6b6b"/>
      <stop offset="0.767" stop-color="#a27473"/>
      <stop offset="1" stop-color="#a47776"/>
    </radialGradient>
    <clipPath id="clip-path">
      <path id="Path_409" data-name="Path 409" d="M-1149.689-3182.613s-3.756-6.108-6.772-8.25l-9.4-7.514,3.479,2.03a1.261,1.261,0,0,0,.04-1.543,9.618,9.618,0,0,0-3.212-2.534l-7.326-3.087-.665.387.043.288,1.919,1.12-.237.181.042.17-.377-.37-1.093.67-1.095-1.387-1.178.531.007.633-.313-.5-1.333.311-.031.183-1.33.123,0,.008-1.142-.056-.986-.172-.261.407-.877-.277-.046.055-.048-.023.188-.618-1.061-.781.133-.309-.99-.841-.535.95-.019-.037-.55.451-.244-.585-2.4,1.649-1.633,1.068-.322-1.266-.17.083-.123-1.258-2.778.874-3.147.914,2.418-1.105-1,.11,2.548-.713-5.641-.262,1.292-.125-15.75-3.882a5.772,5.772,0,0,0,3.549,3.032,18.875,18.875,0,0,0,2.089.566l-10-.465a5.769,5.769,0,0,0,4.026,2.363s5.856.344,11.024.242l-16.477,1.812a5.772,5.772,0,0,0,4.344,1.709s6.809-.664,12.13-1.7l-17.332,5.037s.772,1.5,3.9,1.73a44.82,44.82,0,0,0,8.374-1.137l-10.385,4.817s.99,1.369,4.118,1.121a47.08,47.08,0,0,0,7.441-2.11l-8.781,5.749s.128.65,3.187-.049a48.986,48.986,0,0,0,6.39-2.794l-7.6,6.04s1.277,1.106,4.265.149c0,0,6.589-2.923,9.127-5.765l3.315-3.385-10.652,11.869s1.369.793,4.007-.6a40.937,40.937,0,0,0,6.643-5.583l-5.39,9.23s1.5.5,3.8-1.393a46.929,46.929,0,0,0,4.383-5.236l-4.359,9.722s1.582.429,3.708-1.666c0,0,4.325-5.327,5.227-8.878l.576-1.894-3.117,13.416s1.635.117,3.319-2.346a46.3,46.3,0,0,0,2.5-5.713l-.847,9.088s1.636-.1,2.972-2.773a43.1,43.1,0,0,0,1.934-7.328l.4,10.142s1.608-.32,2.58-3.141a47.057,47.057,0,0,0,.861-5.719l1.441,8.689s1.556-.518,2.169-3.437a40.909,40.909,0,0,0-.086-8.285l3.4,10.8s1.468-.73,1.666-3.708c0,0-.305-6.855-1.99-10.109l-.615-1.382,6.324,13.384s1.355-.924,1.146-3.9c0,0-1.073-5.861-2.928-9.083l7.242,11.523s1.1-1.17.4-4.221a46.594,46.594,0,0,0-3.528-7.9l8.732,10.644s.939-1.3-.132-4.239a53.065,53.065,0,0,0-3.235-5.666l7.289,7.229S-1148.323-3179.8-1149.689-3182.613Zm-16.622-3.829-.2-.32.241.383Z" transform="translate(1218.32 3206.917)" fill="none"/>
    </clipPath>
    <clipPath id="clip-path-2">
      <path id="Path_430" data-name="Path 430" d="M-946.276-3337.748l-3.945-9.478a53.133,53.133,0,0,0,4.027,5.134c2.318,2.1,3.876,1.722,3.876,1.722l-6.562-12.1a46.526,46.526,0,0,0,5.984,6.248c2.564,1.794,4.061,1.221,4.061,1.221l-7.938-11.055c2.283,2.933,7.306,6.139,7.306,6.139,2.677,1.317,4.044.411,4.044.411l-10.008-10.907,1.048,1.091c2.378,2.787,8.611,5.657,8.611,5.657,2.832.94,4.062-.144,4.062-.144l-8.722-7.226a40.86,40.86,0,0,0,7.64,3.206c2.935.534,4-.712,4-.712l-7.5-4.612a47.056,47.056,0,0,0,5.621,1.36c2.979.165,3.882-1.2,3.882-1.2l-9.24-4.2a43.11,43.11,0,0,0,7.516.973c2.975-.23,3.689-1.706,3.689-1.706l-8.735-2.645a46.332,46.332,0,0,0,6.232-.155c2.916-.63,3.425-2.188,3.425-2.188l-13.6-2.176,1.971.181c3.629.5,10.194-1.49,10.194-1.49,2.741-1.178,2.941-2.805,2.941-2.805l-10.648.368a46.891,46.891,0,0,0,6.5-2.083c2.622-1.419,2.725-3,2.725-3l-10.581,1.509a40.918,40.918,0,0,0,7.677-4.045c2.283-1.918,2.065-3.485,2.065-3.485l-15.011,5.385,4.385-1.792c3.589-1.277,8.783-6.276,8.783-6.276,2.014-2.406,1.471-4.006,1.471-4.006l-8.46,4.757a49.044,49.044,0,0,0,5-4.863c1.8-2.569,1.248-2.933,1.248-2.933l-8.637,5.963a47.071,47.071,0,0,0,4.762-6.095c1.41-2.8.515-4.236.515-4.236l-8.38,7.8a44.82,44.82,0,0,0,4.213-7.326c.971-2.983-.13-4.265-.13-4.265l-11.2,14.15c2.965-4.538,6.149-10.593,6.149-10.593a5.771,5.771,0,0,0,.056-4.668l-7.9,14.575c2.045-4.747,3.936-10.3,3.936-10.3a5.771,5.771,0,0,0-.67-4.62l-3.344,9.438a18.768,18.768,0,0,0,.264-2.148,5.77,5.77,0,0,0-1.468-4.431l-2.348,16.051.6-1.15-1.886,5.323,1.621-2.089-.479.884,1.936-1.822-2.034,2.569-1.857,2.243,1.118.588-.141.125,1.051.776-1.606,1.108-2.433,1.6.45.447-.625.339.027.031-1.081.137.405,1.234.336-.007.323,1.277.644.059,0,.054-.068.022-.075.917-.476.088-.212.977-.379,1.079h-.008l-.616,1.186-.181-.04-.79,1.117.349.479-.583-.244-.936.89.872,1.538-1.033.759.2.489-.142-.1-.257.151-.313-2.2-.251-.149-.609.47.094,7.95a9.619,9.619,0,0,0,1.134,3.931,1.261,1.261,0,0,0,1.444.546l-.567-3.988,3.411,11.543c.846,3.6,5.085,9.384,5.085,9.384C-947.864-3337.529-946.276-3337.748-946.276-3337.748Zm-.91-18.884-.264-.367.221.3C-947.215-3356.674-947.2-3356.653-947.186-3356.632Z" transform="translate(960.556 3409.287)" fill="none"/>
    </clipPath>
  </defs>
  <g id="Group_135" data-name="Group 135" transform="translate(1218.32 3409.287)">
    <g id="Group_134" data-name="Group 134" transform="translate(-1218.32 -3409.287)">
      <g id="Group_108" data-name="Group 108" transform="translate(129.927 110.959)">
        <path id="Path_388" data-name="Path 388" d="M-695.368-2962.681" transform="translate(695.368 2962.681)" fill="url(#radial-gradient)"/>
      </g>
      <g id="Group_132" data-name="Group 132" transform="translate(0 0)">
        <g id="Group_113" data-name="Group 113" transform="translate(0 50.279)">
          <g id="Group_109" data-name="Group 109" transform="translate(0.014 0.007)">
            <path id="Path_389" data-name="Path 389" d="M-1192.336-3189.153l-25.929,7.536s.772,1.5,3.9,1.73c0,0,7.2-.253,10.619-1.943l14.323-6.806-.136-1.39Z" transform="translate(1218.265 3194.216)" fill="#dcdbda"/>
            <path id="Path_390" data-name="Path 390" d="M-1186.159-3184.018l-24.495,11.363s.99,1.37,4.118,1.122c0,0,7.083-1.338,10.2-3.524l13.132-8.89-.344-1.354Z" transform="translate(1212.544 3190.665)" fill="#dcdbda"/>
            <path id="Path_391" data-name="Path 391" d="M-1166.257-3188.757l-25.249,20.072s1.277,1.106,4.265.149c0,0,6.589-2.923,9.126-5.766l14.753-15.063-.645-1.239Z" transform="translate(1198.154 3194.65)" fill="#dcdbda"/>
            <path id="Path_392" data-name="Path 392" d="M-1146.756-3188.526l-20.381,22.71s1.369.792,4.007-.6c0,0,5.688-3.809,7.6-6.846l11.378-16.322-.8-1.022Z" transform="translate(1179.84 3194.65)" fill="#dcdbda"/>
            <path id="Path_393" data-name="Path 393" d="M-1130.58-3191.879l-15.388,26.351s1.5.5,3.8-1.393c0,0,4.8-4.876,6.069-8.237l7.856-18.28-.989-.841Z" transform="translate(1163.93 3197.412)" fill="#dcdbda"/>
            <path id="Path_394" data-name="Path 394" d="M-1117.93-3187.211l-12.627,28.163s1.583.429,3.708-1.666c0,0,4.325-5.327,5.227-8.878l5.895-19.369-1.1-.811Z" transform="translate(1152.348 3194.026)" fill="#dcdbda"/>
            <path id="Path_395" data-name="Path 395" d="M-1097.837-3184.772l-6.985,30.063s1.635.117,3.319-2.346c0,0,3.222-6.059,3.425-9.717l2.066-17.945-1.237-.584Z" transform="translate(1133.007 3190.665)" fill="#dcdbda"/>
            <path id="Path_396" data-name="Path 396" d="M-1081.964-3183.545l-2.863,30.73s1.636-.1,2.972-2.772c0,0,2.375-6.439,2.082-10.091l-.375-18.059-1.3-.411Z" transform="translate(1117.98 3189.798)" fill="#dcdbda"/>
            <path id="Path_397" data-name="Path 397" d="M-1068.382-3184.006l1.222,30.839s1.608-.32,2.579-3.141c0,0,1.5-6.7.731-10.277l-2.758-17.851-1.348-.236Z" transform="translate(1105.62 3190.192)" fill="#dcdbda"/>
            <path id="Path_398" data-name="Path 398" d="M-1064.133-3183.268l5.048,30.448s1.556-.518,2.169-3.438c0,0,.659-6.83-.553-10.288l-4.956-17.37-1.366-.067Z" transform="translate(1102.427 3189.673)" fill="#dcdbda"/>
            <path id="Path_399" data-name="Path 399" d="M-1059.046-3183.41l9.267,29.44s1.468-.73,1.665-3.708c0,0-.305-6.855-1.99-10.109l-7.342-16.5-1.362.125Z" transform="translate(1098.604 3189.905)" fill="#dcdbda"/>
            <path id="Path_400" data-name="Path 400" d="M-1053.146-3185.174l13.186,27.906s1.355-.923,1.146-3.9c0,0-1.235-6.75-3.346-9.744l-9.52-15.351-1.333.31Z" transform="translate(1094.17 3191.388)" fill="#dcdbda"/>
            <path id="Path_401" data-name="Path 401" d="M-1046.007-3187.559l16.865,26.835s1.1-1.17.4-4.221c0,0-2.276-6.8-4.728-9.569l-11.369-14.4-1.178.531Z" transform="translate(1088.811 3193.384)" fill="#dcdbda"/>
            <path id="Path_402" data-name="Path 402" d="M-1036.791-3184.535l20.1,24.5s.94-1.3-.132-4.239c0,0-3.112-6.46-5.892-8.9l-13.089-12.863-1.1.675Z" transform="translate(1081.963 3191.213)" fill="#dcdbda"/>
            <path id="Path_403" data-name="Path 403" d="M-1030.921-3186.794l22.5,22.32s.8-1.388-.565-4.2c0,0-3.756-6.108-6.772-8.25l-14.336-11.457-1.027.784Z" transform="translate(1077.614 3192.981)" fill="#dcdbda"/>
            <path id="Path_404" data-name="Path 404" d="M-1038.018-3192.5l11.121,6.489a1.261,1.261,0,0,0,.04-1.543,9.62,9.62,0,0,0-3.213-2.533l-7.326-3.087-.665.387Z" transform="translate(1082.833 3196.586)" fill="#dcdbda"/>
            <path id="Path_405" data-name="Path 405" d="M-1173.187-3189.5l-26.286,17.208s.128.65,3.187-.049c0,0,6.814-2.352,9.584-4.968l16.452-12.551-.537-1.289Z" transform="translate(1204.141 3195.056)" fill="#dcdbda"/>
            <path id="Path_406" data-name="Path 406" d="M-1175.754-3203.008l-15.751-3.883a5.772,5.772,0,0,0,3.549,3.032,26.485,26.485,0,0,0,8.393,1.22Z" transform="translate(1198.154 3206.89)" fill="#dcdbda"/>
            <path id="Path_407" data-name="Path 407" d="M-1184.605-3193.142l-24.463-1.136a5.773,5.773,0,0,0,4.026,2.364s11.918.7,16.752-.2Z" transform="translate(1211.353 3197.412)" fill="#dcdbda"/>
            <path id="Path_408" data-name="Path 408" d="M-1190.47-3187.278l-24.342,2.678a5.772,5.772,0,0,0,4.344,1.709s11.882-1.158,16.519-2.8Z" transform="translate(1215.67 3192.151)" fill="#dcdbda"/>
          </g>
          <g id="Group_112" data-name="Group 112">
            <g id="Group_111" data-name="Group 111" clip-path="url(#clip-path)">
              <g id="Group_110" data-name="Group 110" transform="translate(-72.773 -24.873)">
                <line id="Line_329" data-name="Line 329" x1="84.697" y1="25.93" fill="none" stroke="#bababa" stroke-miterlimit="10" stroke-width="0.5"/>
                <line id="Line_330" data-name="Line 330" x1="83.148" y1="24.618" transform="translate(2.138 1.346)" fill="none" stroke="#bababa" stroke-miterlimit="10" stroke-width="0.5"/>
                <line id="Line_331" data-name="Line 331" x1="81.599" y1="23.306" transform="translate(4.277 2.692)" fill="none" stroke="#bababa" stroke-miterlimit="10" stroke-width="0.5"/>
                <line id="Line_332" data-name="Line 332" x1="80.05" y1="21.995" transform="translate(6.415 4.039)" fill="none" stroke="#bababa" stroke-miterlimit="10" stroke-width="0.5"/>
                <line id="Line_333" data-name="Line 333" x1="78.501" y1="20.683" transform="translate(8.553 5.385)" fill="none" stroke="#bababa" stroke-miterlimit="10" stroke-width="0.5"/>
                <line id="Line_334" data-name="Line 334" x1="76.952" y1="19.371" transform="translate(10.692 6.731)" fill="none" stroke="#bababa" stroke-miterlimit="10" stroke-width="0.5"/>
                <line id="Line_335" data-name="Line 335" x1="75.403" y1="18.06" transform="translate(12.83 8.078)" fill="none" stroke="#bababa" stroke-miterlimit="10" stroke-width="0.5"/>
                <line id="Line_336" data-name="Line 336" x1="73.854" y1="16.748" transform="translate(14.968 9.424)" fill="none" stroke="#bababa" stroke-miterlimit="10" stroke-width="0.5"/>
                <line id="Line_337" data-name="Line 337" x1="72.305" y1="15.436" transform="translate(17.106 10.77)" fill="none" stroke="#bababa" stroke-miterlimit="10" stroke-width="0.5"/>
                <line id="Line_338" data-name="Line 338" x1="70.756" y1="14.124" transform="translate(19.245 12.116)" fill="none" stroke="#bababa" stroke-miterlimit="10" stroke-width="0.5"/>
                <line id="Line_339" data-name="Line 339" x1="69.207" y1="12.813" transform="translate(21.383 13.463)" fill="none" stroke="#bababa" stroke-miterlimit="10" stroke-width="0.5"/>
                <line id="Line_340" data-name="Line 340" x1="67.658" y1="11.501" transform="translate(23.521 14.809)" fill="none" stroke="#bababa" stroke-miterlimit="10" stroke-width="0.5"/>
                <line id="Line_341" data-name="Line 341" x1="66.109" y1="10.189" transform="translate(25.66 16.155)" fill="none" stroke="#bababa" stroke-miterlimit="10" stroke-width="0.5"/>
                <line id="Line_342" data-name="Line 342" x1="64.56" y1="8.877" transform="translate(27.798 17.501)" fill="none" stroke="#bababa" stroke-miterlimit="10" stroke-width="0.5"/>
                <line id="Line_343" data-name="Line 343" x1="63.011" y1="7.566" transform="translate(29.936 18.848)" fill="none" stroke="#bababa" stroke-miterlimit="10" stroke-width="0.5"/>
                <line id="Line_344" data-name="Line 344" x1="61.462" y1="6.254" transform="translate(32.075 20.194)" fill="none" stroke="#bababa" stroke-miterlimit="10" stroke-width="0.5"/>
                <line id="Line_345" data-name="Line 345" x1="59.913" y1="4.942" transform="translate(34.213 21.54)" fill="none" stroke="#bababa" stroke-miterlimit="10" stroke-width="0.5"/>
                <line id="Line_346" data-name="Line 346" x1="58.364" y1="3.631" transform="translate(36.351 22.886)" fill="none" stroke="#bababa" stroke-miterlimit="10" stroke-width="0.5"/>
                <line id="Line_347" data-name="Line 347" x1="56.815" y1="2.319" transform="translate(38.49 24.233)" fill="none" stroke="#bababa" stroke-miterlimit="10" stroke-width="0.5"/>
                <line id="Line_348" data-name="Line 348" x1="55.266" y1="1.007" transform="translate(40.628 25.579)" fill="none" stroke="#bababa" stroke-miterlimit="10" stroke-width="0.5"/>
                <line id="Line_349" data-name="Line 349" x1="53.717" y2="0.305" transform="translate(42.766 26.62)" fill="none" stroke="#bababa" stroke-miterlimit="10" stroke-width="0.5"/>
                <line id="Line_350" data-name="Line 350" x1="52.169" y2="1.616" transform="translate(44.905 26.655)" fill="none" stroke="#bababa" stroke-miterlimit="10" stroke-width="0.5"/>
                <line id="Line_351" data-name="Line 351" x1="50.62" y2="2.928" transform="translate(47.043 26.69)" fill="none" stroke="#bababa" stroke-miterlimit="10" stroke-width="0.5"/>
                <line id="Line_352" data-name="Line 352" x1="49.071" y2="4.24" transform="translate(49.181 26.724)" fill="none" stroke="#bababa" stroke-miterlimit="10" stroke-width="0.5"/>
                <line id="Line_353" data-name="Line 353" x1="47.522" y2="5.552" transform="translate(51.319 26.759)" fill="none" stroke="#bababa" stroke-miterlimit="10" stroke-width="0.5"/>
                <line id="Line_354" data-name="Line 354" x1="45.973" y2="6.863" transform="translate(53.458 26.793)" fill="none" stroke="#bababa" stroke-miterlimit="10" stroke-width="0.5"/>
                <line id="Line_355" data-name="Line 355" x1="44.424" y2="8.175" transform="translate(55.596 26.828)" fill="none" stroke="#bababa" stroke-miterlimit="10" stroke-width="0.5"/>
                <line id="Line_356" data-name="Line 356" x1="42.875" y2="9.487" transform="translate(57.734 26.862)" fill="none" stroke="#bababa" stroke-miterlimit="10" stroke-width="0.5"/>
                <line id="Line_357" data-name="Line 357" x1="41.326" y2="10.799" transform="translate(59.873 26.897)" fill="none" stroke="#bababa" stroke-miterlimit="10" stroke-width="0.5"/>
                <line id="Line_358" data-name="Line 358" x1="39.777" y2="12.11" transform="translate(62.011 26.931)" fill="none" stroke="#bababa" stroke-miterlimit="10" stroke-width="0.5"/>
                <line id="Line_359" data-name="Line 359" x1="38.228" y2="13.422" transform="translate(64.149 26.966)" fill="none" stroke="#bababa" stroke-miterlimit="10" stroke-width="0.5"/>
                <line id="Line_360" data-name="Line 360" x1="36.679" y2="14.734" transform="translate(66.288 27)" fill="none" stroke="#bababa" stroke-miterlimit="10" stroke-width="0.5"/>
                <line id="Line_361" data-name="Line 361" x1="35.13" y2="16.045" transform="translate(68.426 27.035)" fill="none" stroke="#bababa" stroke-miterlimit="10" stroke-width="0.5"/>
                <line id="Line_362" data-name="Line 362" x1="33.581" y2="17.357" transform="translate(70.564 27.069)" fill="none" stroke="#bababa" stroke-miterlimit="10" stroke-width="0.5"/>
                <line id="Line_363" data-name="Line 363" x1="32.032" y2="18.669" transform="translate(72.703 27.104)" fill="none" stroke="#bababa" stroke-miterlimit="10" stroke-width="0.5"/>
                <line id="Line_364" data-name="Line 364" x1="30.483" y2="19.981" transform="translate(74.841 27.138)" fill="none" stroke="#bababa" stroke-miterlimit="10" stroke-width="0.5"/>
                <line id="Line_365" data-name="Line 365" x1="28.934" y2="21.292" transform="translate(76.979 27.173)" fill="none" stroke="#bababa" stroke-miterlimit="10" stroke-width="0.5"/>
                <line id="Line_366" data-name="Line 366" x1="27.385" y2="22.604" transform="translate(79.117 27.207)" fill="none" stroke="#bababa" stroke-miterlimit="10" stroke-width="0.5"/>
                <line id="Line_367" data-name="Line 367" x1="25.836" y2="23.916" transform="translate(81.256 27.242)" fill="none" stroke="#bababa" stroke-miterlimit="10" stroke-width="0.5"/>
                <line id="Line_368" data-name="Line 368" x1="24.287" y2="25.228" transform="translate(83.394 27.277)" fill="none" stroke="#bababa" stroke-miterlimit="10" stroke-width="0.5"/>
                <line id="Line_369" data-name="Line 369" x1="22.738" y2="26.539" transform="translate(85.532 27.311)" fill="none" stroke="#bababa" stroke-miterlimit="10" stroke-width="0.5"/>
                <line id="Line_370" data-name="Line 370" x1="21.189" y2="27.851" transform="translate(87.671 27.346)" fill="none" stroke="#bababa" stroke-miterlimit="10" stroke-width="0.5"/>
                <line id="Line_371" data-name="Line 371" x1="19.64" y2="29.163" transform="translate(89.809 27.38)" fill="none" stroke="#bababa" stroke-miterlimit="10" stroke-width="0.5"/>
                <line id="Line_372" data-name="Line 372" x1="18.091" y2="30.474" transform="translate(91.947 27.415)" fill="none" stroke="#bababa" stroke-miterlimit="10" stroke-width="0.5"/>
                <line id="Line_373" data-name="Line 373" x1="16.542" y2="31.786" transform="translate(94.086 27.449)" fill="none" stroke="#bababa" stroke-miterlimit="10" stroke-width="0.5"/>
                <line id="Line_374" data-name="Line 374" x1="14.993" y2="33.098" transform="translate(96.224 27.484)" fill="none" stroke="#bababa" stroke-miterlimit="10" stroke-width="0.5"/>
                <line id="Line_375" data-name="Line 375" x1="13.444" y2="34.41" transform="translate(98.362 27.518)" fill="none" stroke="#bababa" stroke-miterlimit="10" stroke-width="0.5"/>
                <line id="Line_376" data-name="Line 376" x1="11.895" y2="35.721" transform="translate(100.501 27.553)" fill="none" stroke="#bababa" stroke-miterlimit="10" stroke-width="0.5"/>
                <line id="Line_377" data-name="Line 377" x1="10.346" y2="37.033" transform="translate(102.639 27.587)" fill="none" stroke="#bababa" stroke-miterlimit="10" stroke-width="0.5"/>
                <line id="Line_378" data-name="Line 378" x1="8.797" y2="38.345" transform="translate(104.777 27.622)" fill="none" stroke="#bababa" stroke-miterlimit="10" stroke-width="0.5"/>
                <line id="Line_379" data-name="Line 379" x1="7.248" y2="39.657" transform="translate(106.915 27.656)" fill="none" stroke="#bababa" stroke-miterlimit="10" stroke-width="0.5"/>
                <line id="Line_380" data-name="Line 380" x1="5.699" y2="40.968" transform="translate(109.054 27.691)" fill="none" stroke="#bababa" stroke-miterlimit="10" stroke-width="0.5"/>
                <line id="Line_381" data-name="Line 381" x1="4.15" y2="42.28" transform="translate(111.192 27.725)" fill="none" stroke="#bababa" stroke-miterlimit="10" stroke-width="0.5"/>
                <line id="Line_382" data-name="Line 382" x1="2.601" y2="43.592" transform="translate(113.33 27.76)" fill="none" stroke="#bababa" stroke-miterlimit="10" stroke-width="0.5"/>
                <line id="Line_383" data-name="Line 383" x1="1.052" y2="44.904" transform="translate(115.469 27.794)" fill="none" stroke="#bababa" stroke-miterlimit="10" stroke-width="0.5"/>
                <line id="Line_384" data-name="Line 384" x2="0.497" y2="46.215" transform="translate(117.11 27.829)" fill="none" stroke="#bababa" stroke-miterlimit="10" stroke-width="0.5"/>
                <line id="Line_385" data-name="Line 385" x2="2.046" y2="47.527" transform="translate(117.7 27.863)" fill="none" stroke="#bababa" stroke-miterlimit="10" stroke-width="0.5"/>
                <line id="Line_386" data-name="Line 386" x2="3.595" y2="48.839" transform="translate(118.289 27.898)" fill="none" stroke="#bababa" stroke-miterlimit="10" stroke-width="0.5"/>
                <line id="Line_387" data-name="Line 387" x2="5.144" y2="50.15" transform="translate(118.878 27.933)" fill="none" stroke="#bababa" stroke-miterlimit="10" stroke-width="0.5"/>
                <line id="Line_388" data-name="Line 388" x2="6.693" y2="51.462" transform="translate(119.468 27.967)" fill="none" stroke="#bababa" stroke-miterlimit="10" stroke-width="0.5"/>
                <line id="Line_389" data-name="Line 389" x2="8.242" y2="52.774" transform="translate(120.057 28.002)" fill="none" stroke="#bababa" stroke-miterlimit="10" stroke-width="0.5"/>
                <line id="Line_390" data-name="Line 390" x2="9.791" y2="54.086" transform="translate(120.646 28.036)" fill="none" stroke="#bababa" stroke-miterlimit="10" stroke-width="0.5"/>
                <line id="Line_391" data-name="Line 391" x2="11.34" y2="55.397" transform="translate(121.236 28.071)" fill="none" stroke="#bababa" stroke-miterlimit="10" stroke-width="0.5"/>
                <line id="Line_392" data-name="Line 392" x2="12.889" y2="56.709" transform="translate(121.825 28.105)" fill="none" stroke="#bababa" stroke-miterlimit="10" stroke-width="0.5"/>
                <line id="Line_393" data-name="Line 393" x2="14.438" y2="58.021" transform="translate(122.414 28.14)" fill="none" stroke="#bababa" stroke-miterlimit="10" stroke-width="0.5"/>
                <line id="Line_394" data-name="Line 394" x2="15.986" y2="59.333" transform="translate(123.004 28.174)" fill="none" stroke="#bababa" stroke-miterlimit="10" stroke-width="0.5"/>
                <line id="Line_395" data-name="Line 395" x2="17.535" y2="60.644" transform="translate(123.593 28.209)" fill="none" stroke="#bababa" stroke-miterlimit="10" stroke-width="0.5"/>
                <line id="Line_396" data-name="Line 396" x2="19.084" y2="61.956" transform="translate(124.182 28.243)" fill="none" stroke="#bababa" stroke-miterlimit="10" stroke-width="0.5"/>
                <line id="Line_397" data-name="Line 397" x2="20.633" y2="63.268" transform="translate(124.772 28.278)" fill="none" stroke="#bababa" stroke-miterlimit="10" stroke-width="0.5"/>
                <line id="Line_398" data-name="Line 398" x2="22.182" y2="64.579" transform="translate(125.361 28.312)" fill="none" stroke="#bababa" stroke-miterlimit="10" stroke-width="0.5"/>
                <line id="Line_399" data-name="Line 399" x2="23.731" y2="65.891" transform="translate(125.95 28.347)" fill="none" stroke="#bababa" stroke-miterlimit="10" stroke-width="0.5"/>
                <line id="Line_400" data-name="Line 400" x2="25.28" y2="67.203" transform="translate(126.54 28.381)" fill="none" stroke="#bababa" stroke-miterlimit="10" stroke-width="0.5"/>
                <line id="Line_401" data-name="Line 401" x2="26.829" y2="68.515" transform="translate(127.129 28.416)" fill="none" stroke="#bababa" stroke-miterlimit="10" stroke-width="0.5"/>
                <line id="Line_402" data-name="Line 402" x2="28.378" y2="69.826" transform="translate(127.718 28.45)" fill="none" stroke="#bababa" stroke-miterlimit="10" stroke-width="0.5"/>
                <line id="Line_403" data-name="Line 403" x2="29.927" y2="71.138" transform="translate(128.308 28.485)" fill="none" stroke="#bababa" stroke-miterlimit="10" stroke-width="0.5"/>
                <line id="Line_404" data-name="Line 404" x2="31.476" y2="72.45" transform="translate(128.897 28.519)" fill="none" stroke="#bababa" stroke-miterlimit="10" stroke-width="0.5"/>
                <line id="Line_405" data-name="Line 405" x2="33.025" y2="73.762" transform="translate(129.486 28.554)" fill="none" stroke="#bababa" stroke-miterlimit="10" stroke-width="0.5"/>
                <line id="Line_406" data-name="Line 406" x2="34.574" y2="75.073" transform="translate(130.076 28.589)" fill="none" stroke="#bababa" stroke-miterlimit="10" stroke-width="0.5"/>
                <line id="Line_407" data-name="Line 407" x2="36.123" y2="76.385" transform="translate(130.665 28.623)" fill="none" stroke="#bababa" stroke-miterlimit="10" stroke-width="0.5"/>
                <line id="Line_408" data-name="Line 408" x2="37.672" y2="77.697" transform="translate(131.254 28.658)" fill="none" stroke="#bababa" stroke-miterlimit="10" stroke-width="0.5"/>
                <line id="Line_409" data-name="Line 409" x2="39.221" y2="79.009" transform="translate(131.844 28.692)" fill="none" stroke="#bababa" stroke-miterlimit="10" stroke-width="0.5"/>
                <line id="Line_410" data-name="Line 410" x2="40.77" y2="80.32" transform="translate(132.433 28.727)" fill="none" stroke="#bababa" stroke-miterlimit="10" stroke-width="0.5"/>
              </g>
            </g>
          </g>
        </g>
        <g id="Group_118" data-name="Group 118" transform="translate(64.041)">
          <g id="Group_114" data-name="Group 114" transform="translate(0.001 0.015)">
            <path id="Path_410" data-name="Path 410" d="M-930.366-3382.2l16.763-21.168s1.1,1.282.13,4.265c0,0-2.953,6.577-5.806,9.1l-11.707,10.7-1.236-.65Z" transform="translate(939.261 3404.822)" fill="#dcdbda"/>
            <path id="Path_411" data-name="Path 411" d="M-926.117-3369.7l19.765-18.4s.895,1.434-.515,4.237c0,0-3.911,6.055-7.113,8.12l-13.187,8.806-1.124-.83Z" transform="translate(936.307 3393.35)" fill="#dcdbda"/>
            <path id="Path_412" data-name="Path 412" d="M-938.462-3342.477l28.115-15.808s.543,1.6-1.471,4.006c0,0-5.193,5-8.783,6.276l-19.517,7.979-.9-1.065Z" transform="translate(945.874 3370.942)" fill="#dcdbda"/>
            <path id="Path_413" data-name="Path 413" d="M-939.545-3321.056l28.722-10.306s.217,1.567-2.065,3.486c0,0-5.673,3.83-9.209,4.46l-19.409,4.378-.645-1.127Z" transform="translate(946.723 3350.707)" fill="#dcdbda"/>
            <path id="Path_414" data-name="Path 414" d="M-942.534-3302.818l30.209-4.307s-.1,1.579-2.725,3c0,0-6.329,2.609-9.919,2.513l-19.893.377-.4-1.233Z" transform="translate(949.064 3332.492)" fill="#dcdbda"/>
            <path id="Path_415" data-name="Path 415" d="M-939.546-3287.089l30.846-1.067s-.2,1.628-2.941,2.8c0,0-6.566,2-10.194,1.491L-942-3285.71l-.335-1.326Z" transform="translate(946.859 3318.236)" fill="#dcdbda"/>
            <path id="Path_416" data-name="Path 416" d="M-937.845-3282.458l30.476,4.875s-.508,1.559-3.425,2.188c0,0-6.827.7-10.291-.494l-17.4-4.858-.074-1.366Z" transform="translate(944.021 3313.954)" fill="#dcdbda"/>
            <path id="Path_417" data-name="Path 417" d="M-938.24-3278.76l29.539,8.945s-.715,1.476-3.689,1.706c0,0-6.858-.23-10.13-1.879l-16.582-7.162.111-1.364Z" transform="translate(944.431 3311.174)" fill="#dcdbda"/>
            <path id="Path_418" data-name="Path 418" d="M-940.97-3274.3l28.1,12.769s-.9,1.368-3.882,1.2c0,0-6.768-1.135-9.793-3.2l-15.491-9.29.29-1.337Z" transform="translate(946.638 3307.825)" fill="#dcdbda"/>
            <path id="Path_419" data-name="Path 419" d="M-942.288-3270.036l26.293,16.164s-1.066,1.246-4,.711c0,0-6.574-1.967-9.319-4.394l-14.216-11.144.454-1.291Z" transform="translate(947.76 3304.618)" fill="#dcdbda"/>
            <path id="Path_420" data-name="Path 420" d="M-944.4-3265.384l23.767,19.691s-1.231,1.084-4.062.143c0,0-6.233-2.87-8.611-5.657l-12.513-13.027.631-1.215Z" transform="translate(949.481 3301.17)" fill="#dcdbda"/>
            <path id="Path_421" data-name="Path 421" d="M-948.108-3260.668l20.867,22.741s-1.366.906-4.044-.411c0,0-5.785-3.69-7.761-6.776l-10.624-14.608.79-1.117Z" transform="translate(952.373 3297.706)" fill="#dcdbda"/>
            <path id="Path_422" data-name="Path 422" d="M-952.683-3255.078l18.488,25.745s-1.5.573-4.061-1.221c0,0-5.438-4.673-7.078-7.989l-9.05-15.964.937-.891Z" transform="translate(955.916 3293.617)" fill="#dcdbda"/>
            <path id="Path_423" data-name="Path 423" d="M-953.272-3245.236l15.108,27.863s-1.557.38-3.875-1.722c0,0-4.808-5.319-6.018-8.815l-6.973-16.975,1.041-.765Z" transform="translate(956.402 3286.291)" fill="#dcdbda"/>
            <path id="Path_424" data-name="Path 424" d="M-957.493-3240.529l12.178,29.261s-1.588.219-3.679-2.109c0,0-4.239-5.783-5.085-9.384l-5.2-17.6,1.114-.655Z" transform="translate(959.595 3282.806)" fill="#dcdbda"/>
            <path id="Path_425" data-name="Path 425" d="M-959.691-3249.708l1.813,12.747a1.26,1.26,0,0,1-1.444-.545,9.617,9.617,0,0,1-1.134-3.931l-.094-7.949.609-.47Z" transform="translate(960.551 3289.452)" fill="#dcdbda"/>
            <path id="Path_426" data-name="Path 426" d="M-937.885-3352.668l25.854-17.849s.554.364-1.248,2.933c0,0-4.749,5.423-8.216,7l-17.831,10.5-.992-.984Z" transform="translate(945.345 3380.135)" fill="#dcdbda"/>
            <path id="Path_427" data-name="Path 427" d="M-923.789-3381.669l2.348-16.052a5.773,5.773,0,0,1,1.468,4.431,26.476,26.476,0,0,1-2.037,8.233Z" transform="translate(932.923 3400.579)" fill="#dcdbda"/>
            <path id="Path_428" data-name="Path 428" d="M-928.949-3386.143l8.178-23.083a5.771,5.771,0,0,1,.67,4.62s-3.847,11.3-6.5,15.44Z" transform="translate(936.8 3409.226)" fill="#dcdbda"/>
            <path id="Path_429" data-name="Path 429" d="M-924.352-3386.3l11.665-21.532a5.772,5.772,0,0,1-.056,4.668s-5.556,10.566-8.823,14.242Z" transform="translate(933.346 3408.182)" fill="#dcdbda"/>
          </g>
          <g id="Group_117" data-name="Group 117">
            <g id="Group_116" data-name="Group 116" clip-path="url(#clip-path-2)">
              <g id="Group_115" data-name="Group 115" transform="translate(-4.952 -80.077)">
                <line id="Line_411" data-name="Line 411" y1="88.22" x2="7.946" transform="translate(15.422)" fill="none" stroke="#bababa" stroke-miterlimit="10" stroke-width="0.5"/>
                <line id="Line_412" data-name="Line 412" y1="86.291" x2="8.576" transform="translate(15.232 2.488)" fill="none" stroke="#bababa" stroke-miterlimit="10" stroke-width="0.5"/>
                <line id="Line_413" data-name="Line 413" y1="84.361" x2="9.207" transform="translate(15.042 4.976)" fill="none" stroke="#bababa" stroke-miterlimit="10" stroke-width="0.5"/>
                <line id="Line_414" data-name="Line 414" y1="82.432" x2="9.837" transform="translate(14.851 7.465)" fill="none" stroke="#bababa" stroke-miterlimit="10" stroke-width="0.5"/>
                <line id="Line_415" data-name="Line 415" y1="80.503" x2="10.467" transform="translate(14.661 9.953)" fill="none" stroke="#bababa" stroke-miterlimit="10" stroke-width="0.5"/>
                <line id="Line_416" data-name="Line 416" y1="78.573" x2="11.097" transform="translate(14.47 12.441)" fill="none" stroke="#bababa" stroke-miterlimit="10" stroke-width="0.5"/>
                <line id="Line_417" data-name="Line 417" y1="76.644" x2="11.728" transform="translate(14.28 14.929)" fill="none" stroke="#bababa" stroke-miterlimit="10" stroke-width="0.5"/>
                <line id="Line_418" data-name="Line 418" y1="74.714" x2="12.358" transform="translate(14.09 17.418)" fill="none" stroke="#bababa" stroke-miterlimit="10" stroke-width="0.5"/>
                <line id="Line_419" data-name="Line 419" y1="72.785" x2="12.988" transform="translate(13.899 19.906)" fill="none" stroke="#bababa" stroke-miterlimit="10" stroke-width="0.5"/>
                <line id="Line_420" data-name="Line 420" y1="70.855" x2="13.619" transform="translate(13.709 22.394)" fill="none" stroke="#bababa" stroke-miterlimit="10" stroke-width="0.5"/>
                <line id="Line_421" data-name="Line 421" y1="68.926" x2="14.249" transform="translate(13.518 24.882)" fill="none" stroke="#bababa" stroke-miterlimit="10" stroke-width="0.5"/>
                <line id="Line_422" data-name="Line 422" y1="66.996" x2="14.879" transform="translate(13.328 27.371)" fill="none" stroke="#bababa" stroke-miterlimit="10" stroke-width="0.5"/>
                <line id="Line_423" data-name="Line 423" y1="65.067" x2="15.509" transform="translate(13.138 29.859)" fill="none" stroke="#bababa" stroke-miterlimit="10" stroke-width="0.5"/>
                <line id="Line_424" data-name="Line 424" y1="63.138" x2="16.14" transform="translate(12.947 32.347)" fill="none" stroke="#bababa" stroke-miterlimit="10" stroke-width="0.5"/>
                <line id="Line_425" data-name="Line 425" y1="61.208" x2="16.77" transform="translate(12.757 34.835)" fill="none" stroke="#bababa" stroke-miterlimit="10" stroke-width="0.5"/>
                <line id="Line_426" data-name="Line 426" y1="59.279" x2="17.4" transform="translate(12.566 37.323)" fill="none" stroke="#bababa" stroke-miterlimit="10" stroke-width="0.5"/>
                <line id="Line_427" data-name="Line 427" y1="57.349" x2="18.031" transform="translate(12.376 39.812)" fill="none" stroke="#bababa" stroke-miterlimit="10" stroke-width="0.5"/>
                <line id="Line_428" data-name="Line 428" y1="55.42" x2="18.661" transform="translate(12.186 42.3)" fill="none" stroke="#bababa" stroke-miterlimit="10" stroke-width="0.5"/>
                <line id="Line_429" data-name="Line 429" y1="53.49" x2="19.291" transform="translate(11.995 44.788)" fill="none" stroke="#bababa" stroke-miterlimit="10" stroke-width="0.5"/>
                <line id="Line_430" data-name="Line 430" y1="51.561" x2="19.921" transform="translate(11.805 47.276)" fill="none" stroke="#bababa" stroke-miterlimit="10" stroke-width="0.5"/>
                <line id="Line_431" data-name="Line 431" y1="49.632" x2="20.552" transform="translate(11.614 49.765)" fill="none" stroke="#bababa" stroke-miterlimit="10" stroke-width="0.5"/>
                <line id="Line_432" data-name="Line 432" y1="47.702" x2="21.182" transform="translate(11.424 52.253)" fill="none" stroke="#bababa" stroke-miterlimit="10" stroke-width="0.5"/>
                <line id="Line_433" data-name="Line 433" y1="45.773" x2="21.812" transform="translate(11.234 54.741)" fill="none" stroke="#bababa" stroke-miterlimit="10" stroke-width="0.5"/>
                <line id="Line_434" data-name="Line 434" y1="43.843" x2="22.442" transform="translate(11.043 57.229)" fill="none" stroke="#bababa" stroke-miterlimit="10" stroke-width="0.5"/>
                <line id="Line_435" data-name="Line 435" y1="41.914" x2="23.073" transform="translate(10.853 59.717)" fill="none" stroke="#bababa" stroke-miterlimit="10" stroke-width="0.5"/>
                <line id="Line_436" data-name="Line 436" y1="39.984" x2="23.703" transform="translate(10.662 62.206)" fill="none" stroke="#bababa" stroke-miterlimit="10" stroke-width="0.5"/>
                <line id="Line_437" data-name="Line 437" y1="38.055" x2="24.333" transform="translate(10.472 64.694)" fill="none" stroke="#bababa" stroke-miterlimit="10" stroke-width="0.5"/>
                <line id="Line_438" data-name="Line 438" y1="36.126" x2="24.964" transform="translate(10.282 67.182)" fill="none" stroke="#bababa" stroke-miterlimit="10" stroke-width="0.5"/>
                <line id="Line_439" data-name="Line 439" y1="34.196" x2="25.594" transform="translate(10.091 69.67)" fill="none" stroke="#bababa" stroke-miterlimit="10" stroke-width="0.5"/>
                <line id="Line_440" data-name="Line 440" y1="32.267" x2="26.224" transform="translate(9.901 72.159)" fill="none" stroke="#bababa" stroke-miterlimit="10" stroke-width="0.5"/>
                <line id="Line_441" data-name="Line 441" y1="30.337" x2="26.854" transform="translate(9.71 74.647)" fill="none" stroke="#bababa" stroke-miterlimit="10" stroke-width="0.5"/>
                <line id="Line_442" data-name="Line 442" y1="28.408" x2="27.485" transform="translate(9.52 77.135)" fill="none" stroke="#bababa" stroke-miterlimit="10" stroke-width="0.5"/>
                <line id="Line_443" data-name="Line 443" y1="26.478" x2="28.115" transform="translate(9.33 79.623)" fill="none" stroke="#bababa" stroke-miterlimit="10" stroke-width="0.5"/>
                <line id="Line_444" data-name="Line 444" y1="24.549" x2="28.745" transform="translate(9.139 82.112)" fill="none" stroke="#bababa" stroke-miterlimit="10" stroke-width="0.5"/>
                <line id="Line_445" data-name="Line 445" y1="22.619" x2="29.376" transform="translate(8.949 84.6)" fill="none" stroke="#bababa" stroke-miterlimit="10" stroke-width="0.5"/>
                <line id="Line_446" data-name="Line 446" y1="20.69" x2="30.006" transform="translate(8.758 87.088)" fill="none" stroke="#bababa" stroke-miterlimit="10" stroke-width="0.5"/>
                <line id="Line_447" data-name="Line 447" y1="18.761" x2="30.636" transform="translate(8.568 89.576)" fill="none" stroke="#bababa" stroke-miterlimit="10" stroke-width="0.5"/>
                <line id="Line_448" data-name="Line 448" y1="16.831" x2="31.266" transform="translate(8.378 92.064)" fill="none" stroke="#bababa" stroke-miterlimit="10" stroke-width="0.5"/>
                <line id="Line_449" data-name="Line 449" y1="14.902" x2="31.897" transform="translate(8.187 94.553)" fill="none" stroke="#bababa" stroke-miterlimit="10" stroke-width="0.5"/>
                <line id="Line_450" data-name="Line 450" y1="12.972" x2="32.527" transform="translate(7.997 97.041)" fill="none" stroke="#bababa" stroke-miterlimit="10" stroke-width="0.5"/>
                <line id="Line_451" data-name="Line 451" y1="11.043" x2="33.157" transform="translate(7.806 99.529)" fill="none" stroke="#bababa" stroke-miterlimit="10" stroke-width="0.5"/>
                <line id="Line_452" data-name="Line 452" y1="9.113" x2="33.788" transform="translate(7.616 102.017)" fill="none" stroke="#bababa" stroke-miterlimit="10" stroke-width="0.5"/>
                <line id="Line_453" data-name="Line 453" y1="7.184" x2="34.418" transform="translate(7.426 104.506)" fill="none" stroke="#bababa" stroke-miterlimit="10" stroke-width="0.5"/>
                <line id="Line_454" data-name="Line 454" y1="5.255" x2="35.048" transform="translate(7.235 106.994)" fill="none" stroke="#bababa" stroke-miterlimit="10" stroke-width="0.5"/>
                <line id="Line_455" data-name="Line 455" y1="3.325" x2="35.678" transform="translate(7.045 109.482)" fill="none" stroke="#bababa" stroke-miterlimit="10" stroke-width="0.5"/>
                <line id="Line_456" data-name="Line 456" y1="1.396" x2="36.309" transform="translate(6.854 111.97)" fill="none" stroke="#bababa" stroke-miterlimit="10" stroke-width="0.5"/>
                <line id="Line_457" data-name="Line 457" x2="36.939" y2="0.534" transform="translate(6.664 113.925)" fill="none" stroke="#bababa" stroke-miterlimit="10" stroke-width="0.5"/>
                <line id="Line_458" data-name="Line 458" x2="37.569" y2="2.463" transform="translate(6.474 114.484)" fill="none" stroke="#bababa" stroke-miterlimit="10" stroke-width="0.5"/>
                <line id="Line_459" data-name="Line 459" x2="38.199" y2="4.393" transform="translate(6.283 115.042)" fill="none" stroke="#bababa" stroke-miterlimit="10" stroke-width="0.5"/>
                <line id="Line_460" data-name="Line 460" x2="38.83" y2="6.322" transform="translate(6.093 115.601)" fill="none" stroke="#bababa" stroke-miterlimit="10" stroke-width="0.5"/>
                <line id="Line_461" data-name="Line 461" x2="39.46" y2="8.251" transform="translate(5.902 116.16)" fill="none" stroke="#bababa" stroke-miterlimit="10" stroke-width="0.5"/>
                <line id="Line_462" data-name="Line 462" x2="40.09" y2="10.181" transform="translate(5.712 116.719)" fill="none" stroke="#bababa" stroke-miterlimit="10" stroke-width="0.5"/>
                <line id="Line_463" data-name="Line 463" x2="40.721" y2="12.11" transform="translate(5.522 117.278)" fill="none" stroke="#bababa" stroke-miterlimit="10" stroke-width="0.5"/>
                <line id="Line_464" data-name="Line 464" x2="41.351" y2="14.04" transform="translate(5.331 117.836)" fill="none" stroke="#bababa" stroke-miterlimit="10" stroke-width="0.5"/>
                <line id="Line_465" data-name="Line 465" x2="41.981" y2="15.969" transform="translate(5.141 118.395)" fill="none" stroke="#bababa" stroke-miterlimit="10" stroke-width="0.5"/>
                <line id="Line_466" data-name="Line 466" x2="42.611" y2="17.899" transform="translate(4.95 118.954)" fill="none" stroke="#bababa" stroke-miterlimit="10" stroke-width="0.5"/>
                <line id="Line_467" data-name="Line 467" x2="43.242" y2="19.828" transform="translate(4.76 119.513)" fill="none" stroke="#bababa" stroke-miterlimit="10" stroke-width="0.5"/>
                <line id="Line_468" data-name="Line 468" x2="43.872" y2="21.757" transform="translate(4.57 120.072)" fill="none" stroke="#bababa" stroke-miterlimit="10" stroke-width="0.5"/>
                <line id="Line_469" data-name="Line 469" x2="44.502" y2="23.687" transform="translate(4.379 120.63)" fill="none" stroke="#bababa" stroke-miterlimit="10" stroke-width="0.5"/>
                <line id="Line_470" data-name="Line 470" x2="45.133" y2="25.616" transform="translate(4.189 121.189)" fill="none" stroke="#bababa" stroke-miterlimit="10" stroke-width="0.5"/>
                <line id="Line_471" data-name="Line 471" x2="45.763" y2="27.546" transform="translate(3.998 121.748)" fill="none" stroke="#bababa" stroke-miterlimit="10" stroke-width="0.5"/>
                <line id="Line_472" data-name="Line 472" x2="46.393" y2="29.475" transform="translate(3.808 122.307)" fill="none" stroke="#bababa" stroke-miterlimit="10" stroke-width="0.5"/>
                <line id="Line_473" data-name="Line 473" x2="47.023" y2="31.405" transform="translate(3.618 122.865)" fill="none" stroke="#bababa" stroke-miterlimit="10" stroke-width="0.5"/>
                <line id="Line_474" data-name="Line 474" x2="47.654" y2="33.334" transform="translate(3.427 123.424)" fill="none" stroke="#bababa" stroke-miterlimit="10" stroke-width="0.5"/>
                <line id="Line_475" data-name="Line 475" x2="48.284" y2="35.264" transform="translate(3.237 123.983)" fill="none" stroke="#bababa" stroke-miterlimit="10" stroke-width="0.5"/>
                <line id="Line_476" data-name="Line 476" x2="48.914" y2="37.193" transform="translate(3.046 124.542)" fill="none" stroke="#bababa" stroke-miterlimit="10" stroke-width="0.5"/>
                <line id="Line_477" data-name="Line 477" x2="49.545" y2="39.122" transform="translate(2.856 125.101)" fill="none" stroke="#bababa" stroke-miterlimit="10" stroke-width="0.5"/>
                <line id="Line_478" data-name="Line 478" x2="50.175" y2="41.052" transform="translate(2.666 125.66)" fill="none" stroke="#bababa" stroke-miterlimit="10" stroke-width="0.5"/>
                <line id="Line_479" data-name="Line 479" x2="50.805" y2="42.981" transform="translate(2.475 126.218)" fill="none" stroke="#bababa" stroke-miterlimit="10" stroke-width="0.5"/>
                <line id="Line_480" data-name="Line 480" x2="51.435" y2="44.911" transform="translate(2.285 126.777)" fill="none" stroke="#bababa" stroke-miterlimit="10" stroke-width="0.5"/>
                <line id="Line_481" data-name="Line 481" x2="52.066" y2="46.84" transform="translate(2.094 127.336)" fill="none" stroke="#bababa" stroke-miterlimit="10" stroke-width="0.5"/>
                <line id="Line_482" data-name="Line 482" x2="52.696" y2="48.77" transform="translate(1.904 127.895)" fill="none" stroke="#bababa" stroke-miterlimit="10" stroke-width="0.5"/>
                <line id="Line_483" data-name="Line 483" x2="53.326" y2="50.699" transform="translate(1.714 128.453)" fill="none" stroke="#bababa" stroke-miterlimit="10" stroke-width="0.5"/>
                <line id="Line_484" data-name="Line 484" x2="53.956" y2="52.628" transform="translate(1.523 129.012)" fill="none" stroke="#bababa" stroke-miterlimit="10" stroke-width="0.5"/>
                <line id="Line_485" data-name="Line 485" x2="54.587" y2="54.558" transform="translate(1.333 129.571)" fill="none" stroke="#bababa" stroke-miterlimit="10" stroke-width="0.5"/>
                <line id="Line_486" data-name="Line 486" x2="55.217" y2="56.487" transform="translate(1.142 130.13)" fill="none" stroke="#bababa" stroke-miterlimit="10" stroke-width="0.5"/>
                <line id="Line_487" data-name="Line 487" x2="55.847" y2="58.417" transform="translate(0.952 130.689)" fill="none" stroke="#bababa" stroke-miterlimit="10" stroke-width="0.5"/>
                <line id="Line_488" data-name="Line 488" x2="56.478" y2="60.346" transform="translate(0.762 131.247)" fill="none" stroke="#bababa" stroke-miterlimit="10" stroke-width="0.5"/>
                <line id="Line_489" data-name="Line 489" x2="57.108" y2="62.276" transform="translate(0.571 131.806)" fill="none" stroke="#bababa" stroke-miterlimit="10" stroke-width="0.5"/>
                <line id="Line_490" data-name="Line 490" x2="57.738" y2="64.205" transform="translate(0.381 132.365)" fill="none" stroke="#bababa" stroke-miterlimit="10" stroke-width="0.5"/>
                <line id="Line_491" data-name="Line 491" x2="58.368" y2="66.134" transform="translate(0.19 132.924)" fill="none" stroke="#bababa" stroke-miterlimit="10" stroke-width="0.5"/>
                <line id="Line_492" data-name="Line 492" x2="58.999" y2="68.064" transform="translate(0 133.483)" fill="none" stroke="#bababa" stroke-miterlimit="10" stroke-width="0.5"/>
              </g>
            </g>
          </g>
        </g>
        <g id="Group_119" data-name="Group 119" transform="translate(48.911 62.859)">
          <path id="Path_431" data-name="Path 431" d="M-1013.966-3155.293-1021.4-3139s-.58,3.53,2.131,4.226c0,0,4.044.674,5.2-2.39,0,0,2.8-5.516,3.736-16.284l-.568-2.538Z" transform="translate(1021.455 3156.063)" fill="#0b0909"/>
          <path id="Path_432" data-name="Path 432" d="M-1020.292-3097.409l-1.11,2.432s-.58,3.53,2.131,4.226c0,0,4.044.674,5.2-2.39,0,0,.191-.378.489-1.123C-1018.346-3092.879-1019.831-3095.563-1020.292-3097.409Z" transform="translate(1021.455 3112.036)" fill="#fff"/>
          <path id="Path_433" data-name="Path 433" d="M-1001.287-3141.993a61.59,61.59,0,0,0,2.092-11.752l-.568-2.538-3.061.7-3.847,8.429C-1005.813-3145.06-1004.162-3142.355-1001.287-3141.993Z" transform="translate(1010.345 3156.283)" fill="#0e204f"/>
        </g>
        <g id="Group_120" data-name="Group 120" transform="translate(56.322 65.023)">
          <path id="Path_434" data-name="Path 434" d="M-987.867-3145.753l-3.758,21.27s.2,4.411,3.011,4.739c0,0,4.117.044,4.584-3.909,0,0,1.552-7.257.127-20.553l-1.11-2.982Z" transform="translate(991.625 3147.284)" fill="#0b0909"/>
          <path id="Path_435" data-name="Path 435" d="M-991.064-3068.578l-.561,3.175s.2,4.411,3.011,4.738c0,0,4.117.044,4.584-3.909,0,0,.106-.5.236-1.462C-987.829-3064.621-990.21-3066.418-991.064-3068.578Z" transform="translate(991.625 3088.204)" fill="#fff"/>
          <path id="Path_436" data-name="Path 436" d="M-977.853-3129.874a93.281,93.281,0,0,0-.5-14.716l-1.11-2.982-2.854,1.436-1.945,11.005C-982.963-3132.74-980.754-3129.763-977.853-3129.874Z" transform="translate(986.092 3147.572)" fill="#0e204f"/>
        </g>
        <g id="Group_121" data-name="Group 121" transform="translate(64.156 64.98)">
          <path id="Path_437" data-name="Path 437" d="M-960.063-3145.068l1.4,27.33s1.294,5.538,4.264,5.579c0,0,4.238-.489,3.74-5.538,0,0-.2-9.361-4.953-25.945l-1.877-3.615Z" transform="translate(960.071 3147.378)" fill="#0b0909"/>
          <path id="Path_438" data-name="Path 438" d="M-955.264-3044.865l.209,4.08s1.294,5.538,4.264,5.579c0,0,4.238-.49,3.74-5.539,0,0-.015-.641-.119-1.875C-951.258-3040.7-953.853-3042.254-955.264-3044.865Z" transform="translate(956.464 3070.426)" fill="#fff"/>
          <path id="Path_439" data-name="Path 439" d="M-951.487-3125.634a149.746,149.746,0,0,0-4.155-18.5l-1.877-3.615-2.575,2.189.8,15.556C-957.369-3127.158-954.438-3125.11-951.487-3125.634Z" transform="translate(960.094 3147.747)" fill="#0e204f"/>
        </g>
        <g id="Group_122" data-name="Group 122" transform="translate(68.212 63.771)">
          <path id="Path_440" data-name="Path 440" d="M-942.09-3145.2l6.644,30.522s2.112,5.281,5.055,4.875c0,0,4.116-1.121,2.864-6.038a152.816,152.816,0,0,0-9.947-28.618l-2.4-3.292Z" transform="translate(942.507 3148.956)" fill="#0b0909"/>
          <path id="Path_441" data-name="Path 441" d="M-918.78-3030.394l.853,3.917s2.112,5.281,5.055,4.874c0,0,4.116-1.121,2.864-6.038,0,0-.111-.632-.4-1.837C-914.276-3027.088-916.992-3028.025-918.78-3030.394Z" transform="translate(924.989 3060.759)" fill="#fff"/>
          <path id="Path_442" data-name="Path 442" d="M-930.932-3127.584a209.716,209.716,0,0,0-8.155-21.688l-2.434-3.339-2.249,2.588,4.377,19.364C-937.027-3128.1-933.812-3126.608-930.932-3127.584Z" transform="translate(943.77 3152.611)" fill="#0e204f"/>
        </g>
        <path id="Path_443" data-name="Path 443" d="M-930.665-3157.368l13.2,30.486s2.762,4.978,5.94,3.957a5.215,5.215,0,0,0,2.607-6.777s-7.441-13.263-16.647-27.856l-2.9-2.88Z" transform="translate(1002.133 3222.266)" fill="#0d2779"/>
        <g id="Group_123" data-name="Group 123" transform="translate(66.967 49.673)">
          <path id="Path_444" data-name="Path 444" d="M-947.022-3206.251l17.635-3.1s3.562.325,3.555,3.125c0,0-.364,4.084-3.619,4.431,0,0-6.043,1.327-16.7-.475l-2.314-1.188Z" transform="translate(948.544 3209.356)" fill="#0b0909"/>
          <path id="Path_445" data-name="Path 445" d="M-882.272-3208.893l2.633-.463s3.562.325,3.555,3.125c0,0-.364,4.084-3.619,4.431,0,0-.414.09-1.21.192C-878.376-3205.87-880.6-3207.982-882.272-3208.893Z" transform="translate(898.796 3209.356)" fill="#fff"/>
          <path id="Path_446" data-name="Path 446" d="M-934.568-3196.765a61.569,61.569,0,0,1-11.9-.928l-2.314-1.188,1.443-2.788,9.125-1.606C-936.4-3201.916-934.2-3199.638-934.568-3196.765Z" transform="translate(948.782 3204.786)" fill="#0e204f"/>
        </g>
        <g id="Group_124" data-name="Group 124" transform="translate(69.614 54.676)">
          <path id="Path_447" data-name="Path 447" d="M-935.665-3189.188l21.554,1.408s4.237,1.241,3.886,4.052c0,0-.936,4.009-4.887,3.523,0,0-7.418-.219-19.993-4.765l-2.633-1.787Z" transform="translate(937.834 3189.196)" fill="#0b0909"/>
          <path id="Path_448" data-name="Path 448" d="M-855.591-3184.368l3.217.21s4.237,1.241,3.886,4.052c0,0-.936,4.009-4.887,3.523,0,0-.508-.016-1.476-.118C-851.283-3180.332-853.7-3183.025-855.591-3184.368Z" transform="translate(876.096 3185.573)" fill="#fff"/>
          <path id="Path_449" data-name="Path 449" d="M-921.318-3181.014A93.226,93.226,0,0,1-935.492-3185l-2.633-1.787,2.073-2.43,11.152.728C-922.887-3186.659-920.52-3183.805-921.318-3181.014Z" transform="translate(938.125 3189.218)" fill="#0e204f"/>
        </g>
        <path id="Path_450" data-name="Path 450" d="M-922.859-3171.321l26.12,8.162s5.041,2.632,4.342,5.519c0,0-1.529,3.983-6.3,2.243,0,0-9.016-2.525-23.894-11.257l-3.034-2.718Z" transform="translate(998.341 3230.444)" fill="#0b0909"/>
        <path id="Path_451" data-name="Path 451" d="M-907.1-3158.4a149.678,149.678,0,0,1-16.881-8.629l-3.034-2.719,2.761-1.949,13.515,4.223C-908.466-3164.9-905.859-3161.127-907.1-3158.4Z" transform="translate(999.391 3230.725)" fill="#0e204f"/>
        <g id="Group_125" data-name="Group 125" transform="translate(74.934 63.89)">
          <path id="Path_452" data-name="Path 452" d="M-913.22-3151.12l27.542,14.738s4.5,3.476,3.306,6.2c0,0-2.2,3.653-6.591,1.1a152.845,152.845,0,0,1-24.807-17.394l-2.51-3.208Z" transform="translate(916.388 3151.372)" fill="#0b0909"/>
          <path id="Path_453" data-name="Path 453" d="M-811.658-3099.559l3.6,1.927s4.5,3.476,3.306,6.195c0,0-2.2,3.653-6.591,1.1,0,0-.578-.28-1.657-.886C-809.2-3093.729-809.868-3097.192-811.658-3099.559Z" transform="translate(838.766 3112.621)" fill="#fff"/>
          <path id="Path_454" data-name="Path 454" d="M-895.84-3133.914A206.641,206.641,0,0,1-914.2-3147.49l-2.51-3.208,3.06-1.435,15.823,8.649C-896.043-3140.552-894.138-3136.38-895.84-3133.914Z" transform="translate(916.714 3152.133)" fill="#0e204f"/>
        </g>
        <path id="Path_455" data-name="Path 455" d="M-915.179-3159.277l23.753,24.258s3.551,4.448,1.471,6.958a5.073,5.073,0,0,1-7.135-.234s-10.095-12.338-20.106-26.389l-1.584-3.767Z" transform="translate(993.201 3221.392)" fill="#0d2779"/>
        <g id="Group_127" data-name="Group 127" transform="translate(20.657 18.453)">
          <path id="Path_456" data-name="Path 456" d="M-1109.885-3231.669s-5.1,9.318-25.29,9.54a4.826,4.826,0,0,0,3.771,2.995c7.014,1.287,10.981,2,28.507-1l1.886-1.553s-4.437-9.761-4.77-9.983A25.277,25.277,0,0,0-1109.885-3231.669Z" transform="translate(1135.175 3257.42)" fill="#0e204f"/>
          <path id="Path_457" data-name="Path 457" d="M-996.355-3314.086s10.458-1.866,17.1-20.93a4.825,4.825,0,0,1,1.637,4.529c-1.016,7.059-1.608,11.045-10.033,26.7l-2.073,1.292s-7.837-7.316-7.942-7.7A25.268,25.268,0,0,1-996.355-3314.086Z" transform="translate(1031.832 3335.016)" fill="#0e204f"/>
          <path id="Path_458" data-name="Path 458" d="M-1014.955-3247.282l-8.864,7.223s6.648,35.386,38.486,23.873" transform="translate(1051.485 3269.08)" fill="#0d2779"/>
          <path id="Path_459" data-name="Path 459" d="M-1022.712-3253.966c-.25-1.773-3.472-3.916-3.472-3.916-7.471-6.115-11.45-1.42-11.45-1.42l.193,1.6-1.266,1.588,1.7,3.233.19.367a13.724,13.724,0,0,0,1.035,1.586v0h0c2.508,3.3,4.984,2.918,4.984,2.918C-1021.7-3246.984-1022.712-3253.966-1022.712-3253.966Z" transform="translate(1062.674 3279.407)" fill="#0b0909"/>
          <g id="Group_126" data-name="Group 126" transform="translate(29.769 21.226)">
            <path id="Path_460" data-name="Path 460" d="M-1015.336-3248.372c.2,1.155,2.528.377,2.116-.662C-1013.558-3249.887-1015.582-3249.8-1015.336-3248.372Z" transform="translate(1015.357 3249.583)" fill="#fefbe1"/>
            <path id="Path_461" data-name="Path 461" d="M-1013.167-3247.76a.574.574,0,0,1,.574-.574.574.574,0,0,1,.574.574.575.575,0,0,1-.574.575A.575.575,0,0,1-1013.167-3247.76Z" transform="translate(1013.711 3248.645)" fill="#0b0909"/>
          </g>
          <path id="Path_462" data-name="Path 462" d="M-1012.31-3241.378l3.286,4.094c-1.328,1.737-2.271,3.585-4.081,4.872-2.522,1.794-5.86.742-8.722,1.013a1.689,1.689,0,0,0-.619.177,13.759,13.759,0,0,1-1.529-6.092c.04-3.247,1.241-3.894,1.691-5.114" transform="translate(1051.603 3265.432)" fill="#0b0909"/>
          <path id="Path_463" data-name="Path 463" d="M-1052.571-3254.65a50.187,50.187,0,0,0-5.83,1.292c-.614.3-.542.929.188.848s5.44,1.544,5.911,1.521.47-1.25.115-1.933A4.775,4.775,0,0,1-1052.571-3254.65Z" transform="translate(1077.787 3274.617)" fill="#cc3e2b"/>
        </g>
        <g id="Group_128" data-name="Group 128" transform="translate(59.549 58.975)">
          <path id="Path_464" data-name="Path 464" d="M-974.739-3140.318a9.737,9.737,0,0,1-1.288,1.983,1.922,1.922,0,0,0,.689,1.942c.61.486,1.426,1.188,1.426,1.188s-1.931-.317-2.477-1.424.822,2.616,1.757,2.5-.406.486-.963.189a4.254,4.254,0,0,1-1.844-3.509c-.053-.97-.631.942-.335,1.608s.581,1.753.061,1.132a3.163,3.163,0,0,1-.344-3.971c1.243-1.624,2.544-1.4,2.489-3.1,0,0,.148-2.456,6.266,3.982l-.9.941s-3.037-3.977-4.219-3.945Z" transform="translate(978.636 3149.614)" fill="#cc3e2b"/>
          <path id="Path_465" data-name="Path 465" d="M-932.655-3169.988a9.731,9.731,0,0,1-1.321,1.961,1.923,1.923,0,0,0,.656,1.953c.6.5,1.407,1.212,1.407,1.212s-1.926-.35-2.453-1.465.778,2.63,1.715,2.53-.414.479-.966.173a4.254,4.254,0,0,1-1.785-3.539c-.036-.971-.646.932-.362,1.6s.552,1.762.042,1.133a3.165,3.165,0,0,1-.277-3.977c1.269-1.6,2.567-1.359,2.54-3.06,0,0,.189-2.453,6.2,4.084l-.92.927s-2.971-4.028-4.153-4.015Z" transform="translate(947.049 3171.916)" fill="#cc3e2b"/>
        </g>
        <g id="Group_131" data-name="Group 131" transform="translate(46.809 32.196)">
          <g id="Group_129" data-name="Group 129" transform="translate(1.06 0.475)">
            <path id="Path_466" data-name="Path 466" d="M-1012.87-3274.606l-.523-2.551-1.984,2.16-.079,1.882,1.541.15Z" transform="translate(1017.989 3277.314)" fill="#f89918"/>
            <path id="Path_467" data-name="Path 467" d="M-1024.836-3277.79l-.813,2.827.608,1.185,1.924.188.079-1.882Z" transform="translate(1025.649 3277.79)" fill="#ba6d17"/>
          </g>
          <g id="Group_130" data-name="Group 130">
            <path id="Path_468" data-name="Path 468" d="M-1029.914-3276.131l.875,4.057,2.3.087-1.25-2.054Z" transform="translate(1029.914 3277.018)" fill="#ba6d17"/>
            <path id="Path_469" data-name="Path 469" d="M-1012.693-3278.5l-2.086,1.924-1.615-3.121-.569.91,1.385,4.175,1.72-.061Z" transform="translate(1020.181 3279.7)" fill="#f6c729"/>
            <path id="Path_470" data-name="Path 470" d="M-1022.172-3276.723l1.25,2.054,1.429.054-.816-5.085Z" transform="translate(1024.095 3279.7)" fill="#f89918"/>
          </g>
          <path id="Path_471" data-name="Path 471" d="M-1021.285-3259.954l-5.7-.236.1-.2,5.5.229Z" transform="translate(1027.711 3265.191)" fill="#f89918"/>
          <path id="Path_472" data-name="Path 472" d="M-1021.29-3259.335l-5.692-.236.092.076,5.5.229Z" transform="translate(1027.711 3264.572)" fill="#ba6d17"/>
        </g>
      </g>
      <g id="Group_133" data-name="Group 133" transform="translate(20.786 77.834)">
        <path id="Path_473" data-name="Path 473" d="M-1134.656-3096.007" transform="translate(1134.656 3096.007)" fill="url(#radial-gradient)"/>
      </g>
    </g>
    <path id="Path_474" data-name="Path 474" d="M-1095.818-3124.479c.6-.086.487-.66-.343-.993-3.186-1.278-4.127-1.332-7.093-2.649-4.006-1.779-3.566-4.964-6.748-7.835a12.493,12.493,0,0,0-5.493-2.985c.048-.046.1-.092.146-.142a6.656,6.656,0,0,1,4.985-2.405c2.183-.069,4.117.132,6.037-.967,1.659-.949,2.72-2.679,4.25-3.844a23.186,23.186,0,0,1,5.565-2.862,4.4,4.4,0,0,0-1.391-.105c-5.289.509-6.787,7.447-12.243,6.978-2.661-.229-4.466-.031-6.754,1.554-.537.372-1.232.951-1.984,1.5a30.508,30.508,0,0,0-5.481-.3c-5.852.118-12.624,4.84-15.954,10.9a24.775,24.775,0,0,1-4.324,6.179,4.791,4.791,0,0,0-.408-.5c-1.13-1.215-1.686-1.655-1.646-3.729a12.726,12.726,0,0,1,.569-4.494c.632-1.55,1.569-2.489,2.007-3.844a19.54,19.54,0,0,0,1.246-1.526c.707-1.006.986-2.332,2.193-3.063s2.672-.869,3.9-1.6c1.787-1.07.677-2.022,1.182-3.763a1.671,1.671,0,0,0-.761.108c-.426,1.732-.02,2.3-1.7,3.086-1.267.591-2.624.8-3.7,1.876a20.854,20.854,0,0,0-2.16,2.567c-.292-2.345-1.907-3.527-2.447-5.688-.491-1.969,1.339-4.29,2.147-5.925a10.3,10.3,0,0,1,1.363-2.569,21.558,21.558,0,0,1,2.212-1.678c-1.094.275-2.641.546-3.333,1.644-.637,1.012-1.084,2.28-1.854,3.364a7.482,7.482,0,0,0-.861,7.928c1.893,4.748-3.2,7.586-3.934,12.176-.4,2.485.548,4.164,1.813,6.052a14.2,14.2,0,0,1,1.4,2.318,29.963,29.963,0,0,0-5.525,9.085c-1.185,3.563-5.878,4.529-9.973,5.768a5.941,5.941,0,0,1-.608.144c-.516.271-.942.442-1.474.74l-3.758,1.807c-7.485,2.456-6.151,8.594-6.151,8.594h9.173c.656-1.95,2.059-4.446,2.966-4.81.3-.12.647-.218,1.028-.391h0a19.224,19.224,0,0,0,1.849-.99c1.082-.643,1.981-1.134,2.77-1.555l2.74-1.5a24.323,24.323,0,0,0,5.658-5.009c4.892-5.393,2.947-7.926,7.315-11.489,3.888-3.171,2.612-4.621,5.039-9.29a3.9,3.9,0,0,1,1.728-.981c2.157-.5,3.954,1.058,5.6,2.339,1.552,1.209,2.615,3.635,4.791,2.982.962-.288,1.616-1.511,2.681-1.242,1.1.279,1.526,1.713,2.59,2.158.4.166.5.3.95.137-1.129-1.171-2.227-3.348-3.8-3.666-1.154-.232-1.6.637-2.589.86-1.344.3-1.3-.5-2.209-1.536-1.664-1.907-4.921-4.227-7.709-4.216,4.245-4.958,12.137-5.071,16.716-4.621,4.946.485,7.409,5.354,8.677,8.153s5.119,1.993,8.414,3.478A4.609,4.609,0,0,0-1095.818-3124.479Z" transform="translate(-34.06 -192.468)" fill="#070303"/>
  </g>
</svg>
